<svg id="Layer_1" data-name="Layer 1" xmlns="http://www.w3.org/2000/svg" viewBox="0 0 56.4 114.48"><defs><style>.cls-1{fill:#457ec0;}.cls-2{fill:#422522;}.cls-3{fill:#5f3d37;}.cls-4{fill:#2f6bb4;}.cls-5{fill:#20539a;}.cls-6{fill:#badaf2;}.cls-7{fill:#97c7eb;}.cls-8{fill:#f9ad98;}.cls-9{fill:#fbc4b3;}.cls-10{fill:#bc4d27;}.cls-11{fill:#f05451;}.cls-12{fill:#c02126;}.cls-13{fill:#ee372a;}.cls-14{fill:#fff;}.cls-15{fill:#c19d99;}.cls-16{fill:#b08a87;}.cls-17{fill:#f8bd38;}</style></defs><title>caballero</title><ellipse class="cls-1" cx="28.2" cy="99.48" rx="28.2" ry="15"/><path class="cls-2" d="M188.67,255.15c0-7.09,10.79-12.83,24.11-12.83s24.11,5.74,24.11,12.83S226.1,268,212.78,268,188.67,262.23,188.67,255.15Z" transform="translate(-184.98 -157.16)"/><rect class="cls-2" x="3.68" y="94.89" width="48.23" height="3.9"/><path class="cls-3" d="M188.67,252c0-7.08,10.79-12.82,24.11-12.82S236.89,245,236.89,252s-10.79,12.83-24.11,12.83S188.67,259.13,188.67,252Z" transform="translate(-184.98 -157.16)"/><path class="cls-4" d="M208.28,242.56s-3.7,4.31-6.47,7.7.64,4.73,2.11,4.37a16.33,16.33,0,0,0,7.4-3.55c4.14-3.82,3.76-5.31,3.76-7.15C215.08,240,208.28,242.56,208.28,242.56Z" transform="translate(-184.98 -157.16)"/><path class="cls-4" d="M217.08,247.34s-3.7,4.31-6.47,7.71.63,4.73,2.11,4.36a16.27,16.27,0,0,0,7.4-3.55c4.13-3.82,3.76-5.31,3.76-7.15C223.88,244.77,217.08,247.34,217.08,247.34Z" transform="translate(-184.98 -157.16)"/><path class="cls-5" d="M203.39,178.65a43.57,43.57,0,0,1-4.31,11.41c-1.4,2.72-3.12,5.68-4.68,9a34.47,34.47,0,0,1,3.65,2.94c2.25-2.25,6.2-8.59,7.11-12.14a24.28,24.28,0,0,1,4.26-8.3Z" transform="translate(-184.98 -157.16)"/><path class="cls-6" d="M214,239.22c-.4-3.16-1.65-11.32-5-12.21a23.45,23.45,0,0,0-2.54-.56,7.2,7.2,0,0,1,3-.91,3.85,3.85,0,0,1,2.89,1.59l-1.77-13.56,5-.39c0-.8,0-1.58,0-2.29-3,1.63-6.82,1.73-10.37,1.71.15,5.13.8,11.75,1.24,17.79.28,3.93.47,10.55.9,13.31.16,1.05,1,2,2.86,2.8a4.44,4.44,0,0,0,3.88-.71A40.65,40.65,0,0,0,214,239.22Z" transform="translate(-184.98 -157.16)"/><path class="cls-7" d="M214.9,245c1.81-2.36.75-20.28.18-23,.26-2.35.38-5.77.43-8.78l-5,.39,1.77,13.56a3.85,3.85,0,0,0-2.89-1.59,7.2,7.2,0,0,0-3,.91A23.45,23.45,0,0,1,209,227c3.35.89,4.6,9.05,5,12.21a40.65,40.65,0,0,1,.09,6.57A3.74,3.74,0,0,0,214.9,245Z" transform="translate(-184.98 -157.16)"/><path class="cls-6" d="M222.75,244c-.4-3.15-1.64-11.31-5-12.2a25.15,25.15,0,0,0-2.54-.57,7.26,7.26,0,0,1,3-.91,3.86,3.86,0,0,1,2.9,1.59l-1.78-13.56,5-.38c0-.8,0-1.58,0-2.3-3,1.64-6.83,1.74-10.38,1.71.16,5.13.8,11.75,1.24,17.79.29,3.93.47,10.55.9,13.31.16,1.05,1,2,2.87,2.8a4.41,4.41,0,0,0,3.87-.7A39.66,39.66,0,0,0,222.75,244Z" transform="translate(-184.98 -157.16)"/><path class="cls-7" d="M223.7,249.79c1.81-2.36.74-20.28.18-23,.25-2.36.37-5.77.43-8.78l-5,.38,1.78,13.56a3.86,3.86,0,0,0-2.9-1.59,7.26,7.26,0,0,0-3,.91,25.15,25.15,0,0,1,2.54.57c3.36.89,4.6,9,5,12.2a39.66,39.66,0,0,1,.09,6.58A3.83,3.83,0,0,0,223.7,249.79Z" transform="translate(-184.98 -157.16)"/><path class="cls-5" d="M208.74,170.63s-4.4-.24-6.05,3.68-.67,7.56,1.62,8.51a16.2,16.2,0,0,0,5.29,1S214.73,173.74,208.74,170.63Z" transform="translate(-184.98 -157.16)"/><path class="cls-4" d="M206.76,195.69c-2.3,3.69-3.46,12.37-3.76,16.32a29.1,29.1,0,0,0,12.64,5.5c5,.65,9.29-1.72,13.1-4.66-.05-3.16-.61-12.09-5.18-15.22.92-2.69,2.48-7.28,2.19-10.41-.46-5,0-7.3-3.79-10.51s-6.87-5.34-11.42-5.07c0,0-3.14-.52-4.84,3.64a25.52,25.52,0,0,0-1.06,14.61C205,191.22,205.64,194.16,206.76,195.69Z" transform="translate(-184.98 -157.16)"/><path class="cls-8" d="M209.83,178.52c1.36,1.51,3.27.75,4.85-.72a26.89,26.89,0,0,1,4.59-3.1,3.5,3.5,0,0,1-1.43-2.36,20,20,0,0,0-1-5.16L212.06,169a9,9,0,0,1-1.89,5.62S208.47,177,209.83,178.52Z" transform="translate(-184.98 -157.16)"/><path class="cls-5" d="M208.72,176a2.88,2.88,0,0,0,1.18,4.22c2.46,1.21,4.44-.35,5.23-.84,1.8-1.11,2.67-3.49,4.57-4.25-.21-.21-.69-.66-.91-.85a51.78,51.78,0,0,0-4.11,3.56c-1.58,1.47-3.49,2.23-4.85.72s.34-3.87.34-3.87C209.61,175.29,209,175.57,208.72,176Z" transform="translate(-184.98 -157.16)"/><path class="cls-9" d="M216.48,159.91a5.72,5.72,0,0,0-8.84,3.3c-1.76,5.48,3.34,12.1,5.92,10.88,1.44-.69,4.45-3.07,5.24-5.94C219.68,164.91,218.16,161.11,216.48,159.91Z" transform="translate(-184.98 -157.16)"/><path class="cls-10" d="M217.57,171c1.59-.29,3.18-.76,3.57-2.33,1.15-4.59-.22-9.8-3.55-9.8-1.8-2.35-4.45-2.25-8.42-.15-1.3.68-4.38,1.24-4,4.29a2.93,2.93,0,0,0,2,2.28l4.89-2.6a37.86,37.86,0,0,0,2.23,4.46A19.15,19.15,0,0,0,217.57,171Z" transform="translate(-184.98 -157.16)"/><polygon class="cls-5" points="37.79 29.4 40.8 41.93 47.86 39.92 44.11 27.72 37.79 29.4"/><path class="cls-5" d="M222.61,177.3c-3.63,1.47-4,6.14-3.36,9.27s4.45,6.22,9.43,3.72c3.77-1.88,4-5.57,1.45-10.28A5.62,5.62,0,0,0,222.61,177.3Z" transform="translate(-184.98 -157.16)"/><path class="cls-6" d="M205.92,194.62s-1,1.8,1.22,2.95,9.19,2.77,12.49,2.46c3.72-.35,4.71-1.77,4.71-1.77a41.79,41.79,0,0,1-12-.95C207,195.84,205.92,194.62,205.92,194.62Z" transform="translate(-184.98 -157.16)"/><path class="cls-11" d="M216.1,197l1,.69a12.91,12.91,0,0,0,10.23-.73c8.29-4.18,8.55-8.44,8.55-8.44l-1-.27a22.82,22.82,0,0,1-7,6.37C223.26,197.24,216.1,197,216.1,197Z" transform="translate(-184.98 -157.16)"/><path class="cls-12" d="M216.1,197s.53,9.11,1.3,14.66c1,7.13,3.91,8.38,6.3,10.37a18.11,18.11,0,0,0,6.43,2.9l-13-27.24Z" transform="translate(-184.98 -157.16)"/><path class="cls-13" d="M230.27,206.66a102.6,102.6,0,0,0-1.62-11.24c-4.47,2.38-11.53,2.23-11.53,2.23s.24,4.92.95,10.59C221,208.78,226.57,209.17,230.27,206.66Z" transform="translate(-184.98 -157.16)"/><path class="cls-13" d="M218.39,210.54c.16,1.09.34,2.19.54,3.27,1,5.38,8.18,9.52,10.48,10.72a111.66,111.66,0,0,0,1.06-14.39c0-.37,0-.75,0-1.12l-.16.09A16.08,16.08,0,0,1,218.39,210.54Z" transform="translate(-184.98 -157.16)"/><path class="cls-13" d="M236.34,201.29c0-6.3-.44-12.81-.44-12.81s-.73,2.3-5,5.48c.34,2.4.82,6.36,1.17,11.4A35.12,35.12,0,0,0,236.34,201.29Z" transform="translate(-184.98 -157.16)"/><path class="cls-13" d="M232.2,207.82c0,.56.06,1.12.08,1.69a88.33,88.33,0,0,1-.2,12.12,37.11,37.11,0,0,0,4.14-14.9c.05-.86.08-1.76.1-2.7A28.84,28.84,0,0,1,232.2,207.82Z" transform="translate(-184.98 -157.16)"/><path class="cls-14" d="M236.34,201.29a35.12,35.12,0,0,1-4.3,4.07c.06.8.11,1.62.16,2.46a28.84,28.84,0,0,0,4.12-3.79C236.34,203.14,236.34,202.22,236.34,201.29Z" transform="translate(-184.98 -157.16)"/><path class="cls-14" d="M218.07,208.24c.1.76.2,1.52.32,2.3a16.08,16.08,0,0,0,11.88-1.43l.16-.09c0-.79-.09-1.58-.16-2.36C226.57,209.17,221,208.78,218.07,208.24Z" transform="translate(-184.98 -157.16)"/><path class="cls-14" d="M232.28,209.51c-.33-7-1-12.52-1.41-15.55-.43.32-.89.64-1.39,1-.27.17-.54.33-.83.48a93.16,93.16,0,0,1,1.82,14.72,111.66,111.66,0,0,1-1.06,14.39c.45.24.72.36.72.36a26.9,26.9,0,0,0,2-3.26A88.33,88.33,0,0,0,232.28,209.51Z" transform="translate(-184.98 -157.16)"/><path class="cls-15" d="M197.41,210.75c-1.25-.54-2.46-1.15-3.65-1.81-.41,5.52-2,35.19-2,35.19l4.57,7.36,3-4Z" transform="translate(-184.98 -157.16)"/><polygon class="cls-16" points="10.25 51.42 8.8 87.27 11.26 91.4 12.28 89.71 11.03 51.36 10.25 51.42"/><path class="cls-17" d="M193.08,207.3l1.95,1.13v-7.34c0-.63.38-.92.84-.65a2,2,0,0,1,.85,1.63v7.34l2.44,1.41a2,2,0,0,1,.85,1.62c0,.62-.38.91-.85.64l-6.08-3.51a2,2,0,0,1-.85-1.62C192.23,207.32,192.61,207,193.08,207.3Z" transform="translate(-184.98 -157.16)"/><path class="cls-9" d="M194.4,199.09s-3.66,2.49-4.34,3.74.13,2.44,1.33,3.38,2.2,1.25,3.29,2.06c.08.06,1.57.37.72-1.86.68-.85,1.68-1.79,1.81-2.1.45-1.07.84-2.28.84-2.28S198,199.14,194.4,199.09Z" transform="translate(-184.98 -157.16)"/></svg>