<svg id="Layer_1" data-name="Layer 1" xmlns="http://www.w3.org/2000/svg" viewBox="0 0 194.85 209.19"><defs><style>.cls-1,.cls-3{fill:#c19d99;}.cls-1{opacity:0.3;}.cls-2{fill:#422422;}.cls-4{fill:#f28b36;}.cls-5{fill:#fab742;}.cls-6{fill:#ffa08d;}.cls-7{fill:#ffc5b3;}.cls-8{fill:#f46c3c;}.cls-9{fill:#769620;}.cls-10{fill:#a3bf2e;}.cls-11{fill:#627c11;}.cls-12{fill:#ffad97;}.cls-13{fill:#d8b9b6;}.cls-14{fill:#95c7ef;}.cls-15{fill:#73b3dd;}.cls-16{fill:#b6dbff;}.cls-17{fill:#fff;}.cls-18{fill:#5e3c36;}.cls-19{fill:#22a1ef;}.cls-20{fill:#2484ed;}.cls-21{fill:#7f0057;}.cls-22{fill:#ff4d4d;}.cls-23{fill:#ff8f43;}</style></defs><title>formulario-imagen</title><path class="cls-1" d="M257.1,257.12l-60.27-34.94-61.27,35.24,20.15,11.67c-10.83.28-19.76,5-19.76,10.84,0,6,9.49,10.87,20.77,10.87,10.46,0,18.77-4.18,19.93-9.57l19.16,11.1Z" transform="translate(-127.18 -88.03)"/><path class="cls-1" d="M213.39,286.35c0-6,9.49-10.87,20.77-10.87s20.08,4.87,20.08,10.87-8.8,10.87-20.08,10.87S213.39,292.35,213.39,286.35Z" transform="translate(-127.18 -88.03)"/><path class="cls-2" d="M140.86,134.78l3.81-2.15s.34,14,.34,17.18-.43,9.75,5.12,12.09,13.41,5.41,13.41,5.41l-7.45,4.79a120,120,0,0,1-11.36-5.64c-5.43-3.35-4.86-12.49-4.86-18.3A125.37,125.37,0,0,1,140.86,134.78Z" transform="translate(-127.18 -88.03)"/><path class="cls-2" d="M163.54,164.45a3,3,0,0,1,3,3v27.42a3,3,0,0,1-5.94,0V167.42A3,3,0,0,1,163.54,164.45Z" transform="translate(-127.18 -88.03)"/><path class="cls-3" d="M163.54,158.73c10.38,0,18.8,4.48,18.8,10s-8.42,10-18.8,10-18.8-4.48-18.8-10S153.15,158.73,163.54,158.73Z" transform="translate(-127.18 -88.03)"/><rect class="cls-3" x="17.56" y="78.82" width="37.6" height="2.18"/><path class="cls-3" d="M163.54,156.85c10.38,0,18.8,4.47,18.8,10s-8.42,10-18.8,10-18.8-4.47-18.8-10S153.15,156.85,163.54,156.85Z" transform="translate(-127.18 -88.03)"/><path class="cls-4" d="M163.54,156.23c9.89,0,17.91,4.27,17.91,9.53s-8,9.53-17.91,9.53-17.91-4.27-17.91-9.53S153.65,156.23,163.54,156.23Z" transform="translate(-127.18 -88.03)"/><polygon class="cls-4" points="53.31 71.61 54.27 77.73 18.44 77.73 19.39 71.61 53.31 71.61"/><ellipse class="cls-5" cx="36.35" cy="73.12" rx="17.21" ry="9.15"/><path class="cls-4" d="M137,115.64l5.13-3c5.4-3.11,9.82.23,9.82,7.43v20.56L127.18,155V134.41C127.18,127.2,131.6,118.76,137,115.64Z" transform="translate(-127.18 -88.03)"/><polygon class="cls-4" points="21.91 29.2 21.47 24.22 25.66 26.71 21.91 29.2"/><polygon class="cls-4" points="4.09 69.37 0 66.94 4.83 62.18 4.09 69.37"/><path class="cls-5" d="M141.09,118.07l5.13-3c5.4-3.12,9.82.22,9.82,7.43V143.1l-24.77,14.3V136.83C131.27,129.63,135.69,121.19,141.09,118.07Z" transform="translate(-127.18 -88.03)"/><path class="cls-2" d="M183.66,210.06a6,6,0,0,1,2.51,4.78c0,1.84-1.13,2.69-2.51,1.89a6,6,0,0,1-2.5-4.78C181.16,210.1,182.28,209.26,183.66,210.06Z" transform="translate(-127.18 -88.03)"/><polygon class="cls-2" points="58.11 128.83 56.1 129.99 53.03 122.97 54.96 121.83 58.11 128.83"/><path class="cls-2" d="M181.64,211.22a6,6,0,0,1,2.5,4.78c0,1.85-1.12,2.69-2.5,1.9a6,6,0,0,1-2.5-4.78C179.14,211.27,180.26,210.43,181.64,211.22Z" transform="translate(-127.18 -88.03)"/><path class="cls-2" d="M144.81,185.15,184.35,208a2.09,2.09,0,0,1-2.09,3.61l-39.53-22.82a2.08,2.08,0,0,1,2.08-3.61Z" transform="translate(-127.18 -88.03)"/><path class="cls-2" d="M142.73,208l39.53-22.82a2.09,2.09,0,0,1,2.09,3.61l-39.54,22.82a2.08,2.08,0,0,1-2.08-3.61Z" transform="translate(-127.18 -88.03)"/><path class="cls-2" d="M144.9,187.22a6,6,0,0,1,2.5,4.78c0,1.84-1.12,2.69-2.5,1.89a6,6,0,0,1-2.5-4.78C142.4,187.27,143.52,186.42,144.9,187.22Z" transform="translate(-127.18 -88.03)"/><polygon class="cls-2" points="19.35 106 17.34 107.16 14.27 100.13 16.2 99 19.35 106"/><path class="cls-2" d="M142.88,188.39a6,6,0,0,1,2.5,4.78c0,1.84-1.12,2.69-2.5,1.89a6,6,0,0,1-2.5-4.78C140.38,188.44,141.5,187.59,142.88,188.39Z" transform="translate(-127.18 -88.03)"/><path class="cls-2" d="M147.34,210.64a6,6,0,0,1,2.5,4.78c0,1.84-1.12,2.69-2.5,1.89a6,6,0,0,1-2.5-4.78C144.84,210.69,146,209.84,147.34,210.64Z" transform="translate(-127.18 -88.03)"/><polygon class="cls-2" points="21.79 129.42 19.78 130.58 16.71 123.55 18.64 122.42 21.79 129.42"/><path class="cls-2" d="M145.32,211.81a6,6,0,0,1,2.5,4.78c0,1.84-1.12,2.69-2.5,1.89a6,6,0,0,1-2.5-4.78C142.82,211.86,143.94,211,145.32,211.81Z" transform="translate(-127.18 -88.03)"/><path class="cls-2" d="M185.24,188.52a6,6,0,0,1,2.51,4.78c0,1.84-1.12,2.69-2.51,1.89a6,6,0,0,1-2.5-4.78C182.74,188.57,183.86,187.72,185.24,188.52Z" transform="translate(-127.18 -88.03)"/><polygon class="cls-2" points="59.69 107.3 57.68 108.46 54.61 101.43 56.54 100.3 59.69 107.3"/><path class="cls-2" d="M183.22,189.69a6,6,0,0,1,2.5,4.78c0,1.84-1.12,2.69-2.5,1.89a6,6,0,0,1-2.5-4.78C180.72,189.74,181.84,188.89,183.22,189.69Z" transform="translate(-127.18 -88.03)"/><path class="cls-2" d="M302.23,133.08l-3.81-2.14s-.35,14-.35,17.17.44,9.75-5.11,12.09-13.41,5.41-13.41,5.41l7.44,4.8a120.75,120.75,0,0,0,11.37-5.65c5.43-3.35,4.86-12.49,4.86-18.3A125.37,125.37,0,0,0,302.23,133.08Z" transform="translate(-127.18 -88.03)"/><path class="cls-2" d="M279.55,162.75a3,3,0,0,0-3,3v27.42a3,3,0,1,0,5.94,0V165.72A3,3,0,0,0,279.55,162.75Z" transform="translate(-127.18 -88.03)"/><path class="cls-3" d="M279.55,157c-10.38,0-18.8,4.48-18.8,10s8.42,10,18.8,10,18.8-4.47,18.8-10S289.93,157,279.55,157Z" transform="translate(-127.18 -88.03)"/><rect class="cls-3" x="133.57" y="77.12" width="37.6" height="2.18"/><path class="cls-3" d="M279.55,155.15c-10.38,0-18.8,4.48-18.8,10s8.42,10,18.8,10,18.8-4.48,18.8-10S289.93,155.15,279.55,155.15Z" transform="translate(-127.18 -88.03)"/><path class="cls-4" d="M279.55,154.54c-9.89,0-17.91,4.26-17.91,9.52s8,9.53,17.91,9.53,17.91-4.27,17.91-9.53S289.44,154.54,279.55,154.54Z" transform="translate(-127.18 -88.03)"/><polygon class="cls-4" points="135.41 69.91 134.46 76.03 170.28 76.03 169.33 69.91 135.41 69.91"/><path class="cls-5" d="M279.55,150.3c-9.5,0-17.21,4.1-17.21,9.15s7.71,9.16,17.21,9.16,17.21-4.1,17.21-9.16S289.05,150.3,279.55,150.3Z" transform="translate(-127.18 -88.03)"/><path class="cls-4" d="M306.08,113.94,301,111c-5.4-3.12-9.82.22-9.82,7.42V139l24.76,14.3V132.71C315.9,125.51,311.49,117.06,306.08,113.94Z" transform="translate(-127.18 -88.03)"/><polygon class="cls-4" points="166.81 27.51 167.25 22.52 163.06 25.01 166.81 27.51"/><polygon class="cls-4" points="184.63 67.67 188.72 65.25 183.88 60.48 184.63 67.67"/><path class="cls-5" d="M302,116.37l-5.13-3c-5.4-3.11-9.82.23-9.82,7.43v20.57l24.77,14.29V135.14C311.82,127.93,307.4,119.49,302,116.37Z" transform="translate(-127.18 -88.03)"/><path class="cls-2" d="M259.42,208.36a6,6,0,0,0-2.5,4.78c0,1.84,1.12,2.69,2.5,1.89a6,6,0,0,0,2.51-4.78C261.93,208.41,260.81,207.56,259.42,208.36Z" transform="translate(-127.18 -88.03)"/><polygon class="cls-2" points="130.61 127.14 132.62 128.29 135.69 121.27 133.76 120.14 130.61 127.14"/><path class="cls-2" d="M261.45,209.53a6,6,0,0,0-2.51,4.78c0,1.84,1.12,2.69,2.51,1.89a6,6,0,0,0,2.5-4.78C264,209.57,262.83,208.73,261.45,209.53Z" transform="translate(-127.18 -88.03)"/><path class="cls-2" d="M298.28,183.45l-39.54,22.82a2.08,2.08,0,0,0,2.08,3.61l39.54-22.82a2.08,2.08,0,0,0-2.08-3.61Z" transform="translate(-127.18 -88.03)"/><path class="cls-2" d="M300.36,206.27l-39.54-22.82a2.08,2.08,0,0,0-2.08,3.61l39.54,22.82a2.08,2.08,0,0,0,2.08-3.61Z" transform="translate(-127.18 -88.03)"/><path class="cls-2" d="M298.18,185.52a6,6,0,0,0-2.5,4.78c0,1.85,1.12,2.69,2.5,1.89a6,6,0,0,0,2.51-4.78C300.69,185.57,299.57,184.72,298.18,185.52Z" transform="translate(-127.18 -88.03)"/><polygon class="cls-2" points="169.37 104.3 171.38 105.46 174.45 98.43 172.52 97.3 169.37 104.3"/><path class="cls-2" d="M300.21,186.69a6,6,0,0,0-2.51,4.78c0,1.84,1.12,2.69,2.51,1.89a6,6,0,0,0,2.5-4.78C302.71,186.74,301.59,185.89,300.21,186.69Z" transform="translate(-127.18 -88.03)"/><path class="cls-2" d="M295.75,208.94a6,6,0,0,0-2.51,4.78c0,1.85,1.12,2.69,2.51,1.89a6,6,0,0,0,2.5-4.78C298.25,209,297.13,208.14,295.75,208.94Z" transform="translate(-127.18 -88.03)"/><polygon class="cls-2" points="166.93 127.72 168.94 128.88 172.01 121.85 170.08 120.72 166.93 127.72"/><path class="cls-2" d="M297.77,210.11a6,6,0,0,0-2.5,4.78c0,1.84,1.12,2.69,2.5,1.89a6,6,0,0,0,2.5-4.78C300.27,210.16,299.15,209.31,297.77,210.11Z" transform="translate(-127.18 -88.03)"/><path class="cls-2" d="M257.84,186.82a6,6,0,0,0-2.5,4.78c0,1.85,1.12,2.69,2.5,1.89a6,6,0,0,0,2.51-4.78C260.35,186.87,259.23,186,257.84,186.82Z" transform="translate(-127.18 -88.03)"/><polygon class="cls-2" points="129.03 105.6 131.04 106.76 134.11 99.73 132.18 98.6 129.03 105.6"/><path class="cls-2" d="M259.87,188a6,6,0,0,0-2.51,4.78c0,1.84,1.12,2.69,2.51,1.89a6,6,0,0,0,2.5-4.78C262.37,188,261.25,187.19,259.87,188Z" transform="translate(-127.18 -88.03)"/><path class="cls-6" d="M255.2,165.41s-6,5.05-5.6,10.38c.24,2.91-.11,4.21.35,7.83.43,3.41.67,17,.48,21.51s-3.15,8.53-4.26,10.1,2,4.27,4.62,2,2.86-2.69,4.29-3.36,2.62-3.82,1.69-7.41,0-10.55,1.42-16.61c.88-3.64.78-8.08.73-11.45,0-2.24,8.21-9.38,8.52-10.1C268.22,166.53,255.2,165.41,255.2,165.41Z" transform="translate(-127.18 -88.03)"/><path class="cls-2" d="M252.54,214.58c-3.35,1.77-4.7,2-6.37.65a46.11,46.11,0,0,0-4.24,3.58c-1.08,1.18,2,3.16,5,2.26s5.64-3.6,8.12-5.61,3.11-2.69,3.11-5.08A4.7,4.7,0,0,0,257,207.9S256.06,212.71,252.54,214.58Z" transform="translate(-127.18 -88.03)"/><path class="cls-7" d="M268.92,162.74c-1.26.58-3.71,5.8-8.42,10.52a8.62,8.62,0,0,0-2.31,7.41,39.79,39.79,0,0,1,1,8.08c0,3.44.67,17.62.47,22.11s-3.15,8.52-4.25,10.1,2,4.26,4.61,2,2.87-2.7,4.3-3.37,2.62-3.82,1.69-7.41,0-10.55,1.41-16.61-.42-14.21.84-15.71c2.53-3,7.82-5.66,8-8.73C276.51,167.33,272.69,161,268.92,162.74Z" transform="translate(-127.18 -88.03)"/><path class="cls-2" d="M261.8,220.3c-3.35,1.78-4.71,2-6.37.66a45.53,45.53,0,0,0-4.24,3.57c-1.08,1.19,2,3.16,5,2.26s5.64-3.6,8.12-5.61,3.1-2.68,3.1-5.08a4.65,4.65,0,0,0-1.15-2.47S265.32,218.43,261.8,220.3Z" transform="translate(-127.18 -88.03)"/><path class="cls-2" d="M268.28,148.24l-15,19a74.14,74.14,0,0,1,8,2.27,15,15,0,0,1,8.67,8.87S284.43,171,287.21,166c3.36-6.08.59-15,.59-15C276.05,157.83,268.28,148.24,268.28,148.24Z" transform="translate(-127.18 -88.03)"/><path class="cls-3" d="M272.4,113c-2.45,1.71-8.75,9.46-8.75,9.46a4.08,4.08,0,0,0,1.48,2.75,10.45,10.45,0,0,0,2.08,1.54L278.84,115S274.85,111.31,272.4,113Z" transform="translate(-127.18 -88.03)"/><path class="cls-8" d="M286.25,118.23s-4.07,2.93-5.51,4-3.46-.19-1.9-3.87c.49-1.16,0-4.64,0-4.64s-.55-.16-1.33-.34c-1.26,1.26-3.78,4.66-5.13,6.06s-6.28,5.5-5.16,10.1a39.42,39.42,0,0,0,1.4,4.26c.71,1.91.49,5.48.3,7.41-.23,2.22-2.59,8-2.59,8s4.82,6.16,10.31,6.19a18.28,18.28,0,0,0,11.16-4.27s-1.06-9.74-.66-13.73c0,0,7.91-4,6.37-11.63C293.05,123.38,286.25,118.23,286.25,118.23Z" transform="translate(-127.18 -88.03)"/><path class="cls-2" d="M270.89,111.88c.73,9.27.93,11.25,1.92,13.87a37.32,37.32,0,0,1,5.39-9l-7.12-11.94A43.25,43.25,0,0,0,270.89,111.88Z" transform="translate(-127.18 -88.03)"/><path class="cls-7" d="M217.45,112.13s2.1-2.77,4.08-3.63a2.11,2.11,0,0,1,.38-.11h0a12.9,12.9,0,0,1,2.56-.74,16,16,0,0,0,3-1,1.5,1.5,0,0,1-.79,1.61,6.11,6.11,0,0,1-1.41.51l.38.06a12,12,0,0,0,3.27-.36c1.82-.25,2.08-.44,3.88.48s.32,2.27-2.1,3.36-6,1.19-7.47,1.39-3,3.36-3,3.36-.35,1.32-2.77,0S217.45,112.13,217.45,112.13Z" transform="translate(-127.18 -88.03)"/><path class="cls-9" d="M193.23,99.2a46.86,46.86,0,0,1,6.29,8.66c2,3.78,4.92,10.44,4.92,10.44,5.08-3.67,9.78-4.44,13.05-5.68.24,4.76,3.37,3.37,3.37,3.37s-1.2,3.5-8.43,7.76-9.7,4.84-12.53,2.48a73.16,73.16,0,0,1-10.1-11Z" transform="translate(-127.18 -88.03)"/><path class="cls-2" d="M191.61,139.33s1.2,5.43,3.5,20c1,6.18.48,10.84-1.17,14.71-2.13,5-4.76,8.37-5.8,10.78-1.8,4.19-6.82,15.95-6.82,15.95s-5.47,1.16-8.22-1.54-2.56-4.49-2.56-4.49,4.74-19.67,6.88-21.17,4.39-5.61,4.39-5.61l-7.67-25.2Z" transform="translate(-127.18 -88.03)"/><path class="cls-2" d="M169.68,141.55c-.05.5-2.29,1.37-3.11,7.71s3.8,23.52,4.64,26-3,33.33-3,33.33a7.67,7.67,0,0,0,7.08,2.83c4.14-.55,5.56-2.43,5.56-2.43l4.23-34.21-3.32-32Z" transform="translate(-127.18 -88.03)"/><path class="cls-10" d="M196.13,106.31s4.52,9.7,1,16.08A48,48,0,0,0,192,134.77c-1,3.37,5.12,4.56-2.42,10.47s-19.53,2.48-21.49.56c-3.92-3.85-.79-6.16-.21-9,1.22-6,4-18,6.77-23.49s10.1-13.69,12.93-12S196.13,106.31,196.13,106.31Z" transform="translate(-127.18 -88.03)"/><path class="cls-11" d="M194.81,110a7.45,7.45,0,0,1,.12,4.33c-.72,1.78-3.26,4.93-7.14,1.3s-5.35-6.12-5.65-9a3.3,3.3,0,0,1,2.16-3.61Z" transform="translate(-127.18 -88.03)"/><path class="cls-12" d="M192.91,106.57s.33,4.12.38,5.49c.1,2.66-2.29,3.15-4.33,1.54a19.46,19.46,0,0,1-5.44-7.91l2.91-3.54Z" transform="translate(-127.18 -88.03)"/><path class="cls-7" d="M185.68,94.53a7.22,7.22,0,0,1,11.87.88c4.06,6,.23,15.83-3.33,15.25-2-.32-6.47-2.13-8.44-5.34C183.57,101.71,184.07,96.58,185.68,94.53Z" transform="translate(-127.18 -88.03)"/><path class="cls-2" d="M200.76,96.19A18.23,18.23,0,0,1,194.89,99a27.21,27.21,0,0,1-6.08.81l.23,3.62a3.09,3.09,0,0,1-1-.14c-.36-1.37-1-1.69-1.62-1.11s-.65,3.17-.65,3.17A11.15,11.15,0,0,1,182.46,99c-.58-3.4-.86-8.41,3.57-9.2,1.62-2.53,5.36-1.93,7.89-1,3.2,1.11,6,5,7,5.53a2.42,2.42,0,0,1-1.58,1A3.45,3.45,0,0,0,200.76,96.19Z" transform="translate(-127.18 -88.03)"/><path class="cls-11" d="M217.92,111.55a4.92,4.92,0,0,0,1.17,2.78,3.69,3.69,0,0,0,2.17,1.06l-1,1.7s-1.32.36-2.71-1.45-1.23-2.66-1.13-2.67S217.92,111.55,217.92,111.55Z" transform="translate(-127.18 -88.03)"/><path class="cls-2" d="M181.9,214.63c1.75,2.21,2.29,2.85,3.91,4.9.94,1.2-.07,2.05-2.13,1.7a37.27,37.27,0,0,1-8-2.84,42.87,42.87,0,0,1-5.73-4,4.16,4.16,0,0,1-1.53-2.55l.75-5.73,9.44,4.18S180,212.25,181.9,214.63Z" transform="translate(-127.18 -88.03)"/><path class="cls-2" d="M184,203.8c1.74,2.2,2.29,2.84,3.91,4.89.94,1.2-.08,2.06-2.13,1.71a37.89,37.89,0,0,1-8-2.85,41.36,41.36,0,0,1-5.73-4,4.1,4.1,0,0,1-1.53-2.55l.75-5.73,9.44,4.18S182.12,201.41,184,203.8Z" transform="translate(-127.18 -88.03)"/><polygon class="cls-13" points="18.69 150.53 21.35 152.07 21.35 95.33 18.69 93.8 18.69 150.53"/><polygon class="cls-3" points="21.35 152.07 23.75 150.67 23.75 93.93 21.35 95.33 21.35 152.07"/><polygon class="cls-13" points="98.83 197.71 101.48 199.24 101.48 142.5 98.83 140.97 98.83 197.71"/><polygon class="cls-3" points="101.48 199.24 103.89 197.84 103.89 141.1 101.48 142.5 101.48 199.24"/><polygon class="cls-13" points="176.93 153.16 179.58 154.69 179.58 97.95 176.93 96.42 176.93 153.16"/><polygon class="cls-3" points="179.58 154.69 181.99 153.29 181.99 96.55 179.58 97.95 179.58 154.69"/><polygon class="cls-13" points="18.69 101.06 101.36 148.97 101.36 145.32 18.69 97.41 18.69 101.06"/><polygon class="cls-3" points="101.36 148.97 185.64 100.55 185.64 96.89 101.36 145.32 101.36 148.97"/><polygon class="cls-14" points="16.15 96.39 101.36 145.77 101.36 142.94 16.15 93.55 16.15 96.39"/><polygon class="cls-15" points="101.36 145.59 188.03 95.8 188.03 93.14 101.36 142.94 101.36 145.59"/><polygon class="cls-16" points="16.15 93.55 101.36 142.94 188.03 93.14 102.8 43.72 16.15 93.55"/><polygon class="cls-17" points="104.77 68.58 118.6 76.56 137.77 65.66 123.94 57.67 104.77 68.58"/><polygon class="cls-3" points="122.61 60 133.76 66.54 135.05 65.83 123.9 59.28 122.61 60"/><polygon class="cls-3" points="120.3 61.32 131.44 67.86 132.73 67.14 121.58 60.6 120.3 61.32"/><polygon class="cls-3" points="117.85 62.71 129 69.26 130.29 68.54 119.14 62 117.85 62.71"/><polygon class="cls-3" points="115.53 64.03 126.68 70.58 127.97 69.86 116.82 63.32 115.53 64.03"/><polygon class="cls-3" points="107.94 68.36 119.09 74.91 125.69 71.23 114.54 64.69 107.94 68.36"/><path class="cls-7" d="M267.21,126.78a9.09,9.09,0,0,1-3.28-3.18s-3,3.49-4.41,5a47.3,47.3,0,0,0-3.32,4.83,71.56,71.56,0,0,0-4.33,7.72c-.56,1.77-2.24,5.61-1.46,7.09s3.13,4,4.34.63c.61-1.69,1.09-5.9,1.35-6.4a78.41,78.41,0,0,1,5.66-7.38c1-1.09,5.46-5.62,5.46-5.62A12.07,12.07,0,0,1,267.21,126.78Z" transform="translate(-127.18 -88.03)"/><path class="cls-7" d="M283.25,141a10.21,10.21,0,0,1-4.34,4.89,55,55,0,0,1-8.14,3c-.53.14-5.23,1.13-6.18.87-4.08-1.12-6.41-.43-8.24.64s-2,2.9,2.72,3.18,8.22.45,11,.36a54.13,54.13,0,0,0,11.19-1.7c4.71-1.18,6.17-3.91,7.47-6.05s4.12-8.66,4.12-8.66l-7.25-2.42S284.13,138.59,283.25,141Z" transform="translate(-127.18 -88.03)"/><path class="cls-6" d="M278.4,114.19a24.62,24.62,0,0,1-.94,6c-.18.25-.74.91-1.4,1.84a11.58,11.58,0,0,0,4.74,2.88c.75-.61,1.35-1.07,1.72-1.39a43.77,43.77,0,0,0,4.22-4.92l-.14-11.71Z" transform="translate(-127.18 -88.03)"/><path class="cls-17" d="M277.8,122.13c-.64-.44-1.14-.14-1.74-.07-2.16,4.23,2.15,4.72,4.74,2.88C279.51,124.5,278.64,122.7,277.8,122.13Z" transform="translate(-127.18 -88.03)"/><path class="cls-3" d="M276.49,117.11a7.26,7.26,0,0,0-2.58,5.9l3.89-.88.41-5C277.51,117,277,116.7,276.49,117.11Z" transform="translate(-127.18 -88.03)"/><path class="cls-7" d="M283.12,100.28a7,7,0,0,0-11,3.73c-2.34,6.65,3.67,14.95,6.88,13.54,1.79-.79,5.56-3.6,6.63-7.1C286.85,106.51,285.13,101.81,283.12,100.28Z" transform="translate(-127.18 -88.03)"/><path class="cls-3" d="M284.52,118.56c-2.87,1.4-6.72,3.57-6.72,3.57s1,2.81,2.12,5.19c2.09-1,4.6-4,4.6-4S285.55,119.18,284.52,118.56Z" transform="translate(-127.18 -88.03)"/><path class="cls-2" d="M283,96.62c-3.72-1.53-6.27-.21-9.77,3-2.1,1.93-3.07,4.22-3.07,7.84,0,0,5.41,3.85,8.66,4.53,1.5.31,3.59-.59,4.81-1.19a43.44,43.44,0,0,1,.29,4.44c-.69,11.84-1.29,15.8-1.29,15.8s1,0,2.5-2.61a25.9,25.9,0,0,0,3.72-8c.67-2.46,1.54-14.84-.41-18.42C287.39,100.09,284.87,97.39,283,96.62Z" transform="translate(-127.18 -88.03)"/><path class="cls-3" d="M285.12,131c-.78,2.73-1.39,5.74-1.87,7.28,0,2.75,6.58,4.32,9.09,3.3a44.73,44.73,0,0,0,2.08-5.84c.88-2.88,1.5-7.86-1.52-11.26S285.84,128.46,285.12,131Z" transform="translate(-127.18 -88.03)"/><polygon class="cls-17" points="135.73 119.53 121.91 127.52 102.73 116.61 116.56 108.63 135.73 119.53"/><polygon class="cls-3" points="132.81 119.27 121.66 125.81 109.74 119.03 120.89 112.48 132.81 119.27"/><polygon class="cls-3" points="119.04 111.39 107.89 117.93 105.32 116.5 116.47 109.95 119.04 111.39"/><polygon class="cls-17" points="66.76 117.71 80.58 125.69 99.75 114.78 85.93 106.8 66.76 117.71"/><polygon class="cls-3" points="69.68 117.44 80.83 123.99 92.75 117.2 81.61 110.66 69.68 117.44"/><polygon class="cls-3" points="83.45 109.56 94.59 116.11 97.17 114.67 86.02 108.13 83.45 109.56"/><polygon class="cls-17" points="74.7 89.05 60.88 97.04 41.71 86.13 55.53 78.15 74.7 89.05"/><polygon class="cls-3" points="56.86 80.47 45.71 87.02 44.43 86.3 55.57 79.75 56.86 80.47"/><polygon class="cls-3" points="59.18 81.79 48.03 88.33 46.75 87.62 57.89 81.07 59.18 81.79"/><polygon class="cls-3" points="61.62 83.19 50.48 89.73 49.19 89.01 60.34 82.47 61.62 83.19"/><polygon class="cls-3" points="63.94 84.51 52.8 91.05 51.51 90.33 62.66 83.79 63.94 84.51"/><polygon class="cls-3" points="71.53 88.83 60.39 95.38 53.79 91.71 64.94 85.16 71.53 88.83"/><path class="cls-7" d="M275.14,237.06s-8.27.06-8,1.79c.94,5.25,1.17,17.92,1.17,17.92s-1.09-.49-3.28-1.21a2.39,2.39,0,0,0-1.8,1c-.72,1.34,1.53,2.79,3.89,4s4.31,1.18,5.49.64l2.59-1.14a18.85,18.85,0,0,1-.09-4.65C275.7,248.92,275.44,238.27,275.14,237.06Z" transform="translate(-127.18 -88.03)"/><path class="cls-2" d="M272.64,261.19c-1.18.54-3.12.54-5.49-.64s-4.61-2.64-3.89-4a2.39,2.39,0,0,1,1.8-1l-1.08-.34c-4-1.23-6.34-.32-5.91,1.31.31,1.16.33,1.39,2.66,3.11a31.2,31.2,0,0,0,8.3,4.23c3.68,1.33,5.51,1.51,6.3-.38.47-1.13.14-1.86-.1-3.44Z" transform="translate(-127.18 -88.03)"/><path class="cls-2" d="M285.83,242a2.84,2.84,0,0,0-2.84,2.84V271a2.84,2.84,0,0,0,5.68,0v-26.2A2.84,2.84,0,0,0,285.83,242Z" transform="translate(-127.18 -88.03)"/><path class="cls-3" d="M285.83,236.51c-9.92,0-18,4.28-18,9.56s8,9.56,18,9.56,18-4.28,18-9.56S295.76,236.51,285.83,236.51Z" transform="translate(-127.18 -88.03)"/><rect class="cls-3" x="140.68" y="156.24" width="35.93" height="2.08"/><path class="cls-3" d="M285.83,234.71c-9.92,0-18,4.28-18,9.56s8,9.56,18,9.56,18-4.28,18-9.56S295.76,234.71,285.83,234.71Z" transform="translate(-127.18 -88.03)"/><ellipse class="cls-4" cx="158.65" cy="155.2" rx="17.12" ry="9.11"/><polygon class="cls-4" points="142.44 149.35 141.53 155.2 175.77 155.2 174.86 149.35 142.44 149.35"/><path class="cls-5" d="M285.83,230.08c-9.08,0-16.44,3.92-16.44,8.75s7.36,8.75,16.44,8.75,16.45-3.92,16.45-8.75S294.92,230.08,285.83,230.08Z" transform="translate(-127.18 -88.03)"/><path class="cls-2" d="M305.07,285.57c-1.32-.77-2.39,0-2.39,1.8a5.73,5.73,0,0,0,2.39,4.57c1.32.77,2.39,0,2.39-1.81A5.71,5.71,0,0,0,305.07,285.57Z" transform="translate(-127.18 -88.03)"/><polygon class="cls-2" points="174.59 198.44 177.52 205.15 179.44 204.04 176.43 197.35 174.59 198.44"/><path class="cls-18" d="M303.14,286.68c-1.33-.76-2.4.05-2.4,1.81a5.71,5.71,0,0,0,2.4,4.57c1.32.76,2.39-.05,2.39-1.81A5.73,5.73,0,0,0,303.14,286.68Z" transform="translate(-127.18 -88.03)"/><path class="cls-2" d="M305.72,283.57l-37.78-21.81a2,2,0,1,0-2,3.45L303.73,287a2,2,0,1,0,2-3.45Z" transform="translate(-127.18 -88.03)"/><path class="cls-2" d="M303.73,261.76,266,283.57a2,2,0,0,0,2,3.45l37.78-21.81a2,2,0,0,0-2-3.45Z" transform="translate(-127.18 -88.03)"/><path class="cls-2" d="M268,263.74c-1.32-.76-2.39.05-2.39,1.81a5.74,5.74,0,0,0,2.39,4.57c1.32.76,2.4-.05,2.4-1.81A5.74,5.74,0,0,0,268,263.74Z" transform="translate(-127.18 -88.03)"/><polygon class="cls-2" points="137.54 176.61 140.48 183.32 142.4 182.22 139.39 175.53 137.54 176.61"/><path class="cls-18" d="M266.09,264.86c-1.32-.77-2.39,0-2.39,1.8a5.71,5.71,0,0,0,2.39,4.57c1.32.77,2.39,0,2.39-1.8A5.71,5.71,0,0,0,266.09,264.86Z" transform="translate(-127.18 -88.03)"/><path class="cls-2" d="M270.35,286.12c-1.32-.76-2.39.05-2.39,1.81a5.73,5.73,0,0,0,2.39,4.57c1.32.76,2.4-.05,2.4-1.81A5.75,5.75,0,0,0,270.35,286.12Z" transform="translate(-127.18 -88.03)"/><polygon class="cls-2" points="139.87 198.99 142.81 205.71 144.73 204.6 141.72 197.91 139.87 198.99"/><path class="cls-18" d="M268.42,287.24c-1.32-.76-2.39.05-2.39,1.81a5.74,5.74,0,0,0,2.39,4.57c1.32.76,2.39-.05,2.39-1.81A5.73,5.73,0,0,0,268.42,287.24Z" transform="translate(-127.18 -88.03)"/><path class="cls-2" d="M306.58,265c-1.32-.76-2.39,0-2.39,1.81a5.73,5.73,0,0,0,2.39,4.57c1.32.76,2.39-.05,2.39-1.81A5.74,5.74,0,0,0,306.58,265Z" transform="translate(-127.18 -88.03)"/><polygon class="cls-2" points="176.1 177.85 179.03 184.57 180.95 183.46 177.94 176.77 176.1 177.85"/><path class="cls-18" d="M304.65,266.1c-1.33-.76-2.4,0-2.4,1.81a5.72,5.72,0,0,0,2.4,4.57c1.32.76,2.39-.05,2.39-1.81A5.73,5.73,0,0,0,304.65,266.1Z" transform="translate(-127.18 -88.03)"/><path class="cls-7" d="M262.22,239.25s-8.87-3.19-8.56-1.46c.93,5.25,2.11,25.72,2.11,25.72s-1.09-.49-3.28-1.21a2.41,2.41,0,0,0-1.8,1c-.72,1.35,1.53,2.8,3.89,4s4.31,1.18,5.49.64c.86-.39,2-.9,2.59-1.14a18.85,18.85,0,0,1-.09-4.65A180.43,180.43,0,0,0,262.22,239.25Z" transform="translate(-127.18 -88.03)"/><path class="cls-2" d="M260.07,267.93c-1.18.54-3.12.54-5.49-.64s-4.61-2.64-3.89-4a2.41,2.41,0,0,1,1.8-1l-1.08-.34c-4-1.23-6.34-.32-5.91,1.31.31,1.16.33,1.39,2.66,3.11a31.2,31.2,0,0,0,8.3,4.23c3.68,1.33,5.51,1.51,6.3-.38.47-1.13.14-1.86-.1-3.44C262.1,267,260.93,267.54,260.07,267.93Z" transform="translate(-127.18 -88.03)"/><path class="cls-7" d="M295.64,168.75c-2-4.28-6.69-4.8-9.12-3.12-.89.62-4.19,1.39-5.16,8.73-.65,4.93,1,7.14,2.39,8.42.59.54,2.87.63,2.87.63l-.1,5.5a9.38,9.38,0,0,0,6.32,0l3.09-1.28a10.86,10.86,0,0,1-1-5.68C295.17,177.48,296.76,171.11,295.64,168.75Z" transform="translate(-127.18 -88.03)"/><path class="cls-2" d="M283,218s-14.32,4.16-20,5.67c-10.23,2.72-11.22,11.12-11.22,11.12s-.4,7.74,2.71,10.47,12.28.08,12.28.08,3.56-3.75,14-1c8.64,2.25,12.82.35,15.31-1,4.5-2.5,8.81-6.38,5.74-15.51C300.09,222.7,283,218,283,218Z" transform="translate(-127.18 -88.03)"/><path class="cls-19" d="M300.07,212.4a42.86,42.86,0,0,0-.15-13.76c-.66-5.11-4-11-4-11l-9.4-.14s-3.72,1.55-4.88,4.09-5.3,9.61-3.47,13.5c3.73,8,1.25,13.57.74,14.91A61.8,61.8,0,0,0,277,225.9c1.81,5.09,7.91,7.87,13.25,7.95,4,.07,10.88-1.55,12.43-5.86a9.66,9.66,0,0,0-.45-1.73C299.2,218.46,299.85,214.21,300.07,212.4Z" transform="translate(-127.18 -88.03)"/><path class="cls-20" d="M292.57,185.93a9.21,9.21,0,0,1-6,0s-2.49.91-2.47,2.94a11.4,11.4,0,0,0,9.07.72c3.14-1,3.62-2.55,3.62-2.55l-1.06-2.25Z" transform="translate(-127.18 -88.03)"/><path class="cls-2" d="M292.15,163.29c-7.87-1.66-11.51,3.37-11,8.55.23,2.52,2.3,3.27,4.15,5.2s2.83,3.77,6.85,6.64a1.28,1.28,0,0,1,.33.43,8.25,8.25,0,0,0,1.21.56,6.05,6.05,0,0,1,2-2.95,14.09,14.09,0,0,0,3.51-6C300.75,166.82,296.35,164.17,292.15,163.29Z" transform="translate(-127.18 -88.03)"/><path class="cls-7" d="M282.52,191.58c-3.49.34-10.36,19.14-10.36,19.14A105.89,105.89,0,0,0,259,207.83c-1.53-.23-1-1.77-3-3-2.55-1.63-7.71.69-6.36,2.37s4.84,4.1,7.53,4.42,13.68,7.12,17.39,4.92c0,0,11.2-12.39,11.44-17.69C286.23,194.72,284.34,191.41,282.52,191.58Z" transform="translate(-127.18 -88.03)"/><path class="cls-20" d="M282.41,190.7c-4,.55-2.63,3.47-2.63,3.47s1.44-1.23,3.5.88c1.53,1.56,2,6.59,2,6.59a9.3,9.3,0,0,0,1.77-5.93C286.56,191.83,284.74,190.38,282.41,190.7Z" transform="translate(-127.18 -88.03)"/><path class="cls-7" d="M283.29,175.45l.86,4.11a3.37,3.37,0,0,0,1.9-4.11C285.22,172.14,283.29,175.45,283.29,175.45Z" transform="translate(-127.18 -88.03)"/><path class="cls-2" d="M298.65,200.54c-.64-2,2-4.21,2.48-7a35.66,35.66,0,0,0,.2-10.84c-.59-3-1.92-12-1.92-12L286,177.78s-.23,13.86.24,16.39c.58,3.12,1.71,3.08,2.43,3.51.37.21,2.79.67,1.83,2.15-.81,1.24-3-.3-3-.3s.78,1.84,1.87,2.11c1.39.34,3.21-.9,3.21-.9s-1.22,1.91-.9,2.76c.8,2.12,2.56.88,2.94,2.29s-2.3,1.4-2.3,1.4,1.7,1.95,3.37.4.35-5.7.35-5.7,1.57,1.61,2.91,1.61c1.73,0,3-1.86,3-1.86S299.29,202.52,298.65,200.54Z" transform="translate(-127.18 -88.03)"/><path class="cls-4" d="M308.12,199.12l-5.12,3c-5.4,3.11-9.82,11.56-9.82,18.76v20.57l24.76-14.3V206.54C317.94,199.34,313.53,196,308.12,199.12Z" transform="translate(-127.18 -88.03)"/><polygon class="cls-4" points="187.91 115.64 191.66 113.15 187.47 110.65 187.91 115.64"/><polygon class="cls-4" points="170.08 155.81 170.83 148.62 166 153.38 170.08 155.81"/><path class="cls-5" d="M312.21,201.55l-5.12,2.95c-5.4,3.12-9.82,11.57-9.82,18.77v20.57L322,229.54V209C322,201.77,317.61,198.43,312.21,201.55Z" transform="translate(-127.18 -88.03)"/><path class="cls-2" d="M313.09,237.38c.07-2.17-.36-11.52-.36-15.88,0-2.94-3.19-2.8-3.22.13,0,2.27-.19,7.79,0,14.57.16,5.81,1.95,15.21-10.22,16.33a48.6,48.6,0,0,1-13.46,3.1c1.36.89,8.68,1.21,10.56,1.16C315.14,256.26,313,242.09,313.09,237.38Z" transform="translate(-127.18 -88.03)"/><path class="cls-2" d="M201.72,244.89c-1.23-.76-7.42,2.85-7.42,2.85l-8.54,2.86.66,6.44a5.51,5.51,0,0,0,7.24.41c2.51-1.69,6.92-4.33,8.32-7.2S202.94,245.66,201.72,244.89Z" transform="translate(-127.18 -88.03)"/><path class="cls-2" d="M190.2,221.28c-1.61-5.3-2.9-7.44-6.31-8.8-2-.81-6.68-.17-11.5.88-.61,4.33,0,9.22,2.31,12.94l4.78-2.6a29.65,29.65,0,0,1,1.64,5.8,114.38,114.38,0,0,1,1.71,11.92c.16,3.43.48,8.5.48,8.5a8.38,8.38,0,0,0,8,1.23c4.39-1.72,3.45-5.64,3.45-5.64S191.36,225.08,190.2,221.28Z" transform="translate(-127.18 -88.03)"/><path class="cls-7" d="M148.8,198.17c.45,4.9,8.66,9.23,8.66,9.23l5-15.77-10.42-5S148.35,193.27,148.8,198.17Z" transform="translate(-127.18 -88.03)"/><path class="cls-2" d="M169.54,235.36a2.85,2.85,0,0,0-2.84,2.84v26.21a2.84,2.84,0,1,0,5.68,0V238.2A2.85,2.85,0,0,0,169.54,235.36Z" transform="translate(-127.18 -88.03)"/><path class="cls-3" d="M169.54,229.9c-9.92,0-18,4.28-18,9.56s8,9.55,18,9.55,18-4.28,18-9.55S179.46,229.9,169.54,229.9Z" transform="translate(-127.18 -88.03)"/><rect class="cls-3" x="24.39" y="149.62" width="35.93" height="2.08"/><path class="cls-3" d="M169.54,228.1c-9.92,0-18,4.28-18,9.55s8,9.56,18,9.56,18-4.28,18-9.56S179.46,228.1,169.54,228.1Z" transform="translate(-127.18 -88.03)"/><path class="cls-4" d="M169.54,227.51c-9.45,0-17.12,4.08-17.12,9.11s7.67,9.1,17.12,9.1,17.12-4.07,17.12-9.1S179,227.51,169.54,227.51Z" transform="translate(-127.18 -88.03)"/><polygon class="cls-4" points="26.15 142.74 25.24 148.59 59.48 148.59 58.57 142.74 26.15 142.74"/><path class="cls-5" d="M169.54,223.47c-9.08,0-16.44,3.91-16.44,8.74s7.36,8.75,16.44,8.75S186,237,186,232.21,178.62,223.47,169.54,223.47Z" transform="translate(-127.18 -88.03)"/><path class="cls-5" d="M169.54,223.47c-9.08,0-16.44,3.91-16.44,8.74s7.36,8.75,16.44,8.75S186,237,186,232.21,178.62,223.47,169.54,223.47Z" transform="translate(-127.18 -88.03)"/><path class="cls-2" d="M150.31,279a5.73,5.73,0,0,0-2.39,4.57c0,1.76,1.07,2.57,2.39,1.81a5.74,5.74,0,0,0,2.39-4.57C152.7,279,151.63,278.19,150.31,279Z" transform="translate(-127.18 -88.03)"/><polygon class="cls-2" points="21.57 197.43 23.49 198.53 26.42 191.82 24.57 190.74 21.57 197.43"/><path class="cls-18" d="M152.24,280.07a5.71,5.71,0,0,0-2.39,4.57c0,1.76,1.07,2.57,2.39,1.8a5.71,5.71,0,0,0,2.39-4.57C154.63,280.11,153.56,279.3,152.24,280.07Z" transform="translate(-127.18 -88.03)"/><path class="cls-2" d="M187.44,255.15,149.65,277a2,2,0,0,0,2,3.45l37.78-21.8a2,2,0,1,0-2-3.45Z" transform="translate(-127.18 -88.03)"/><path class="cls-2" d="M189.43,277l-37.78-21.8a2,2,0,0,0-2,3.45l37.79,21.8a2,2,0,1,0,2-3.45Z" transform="translate(-127.18 -88.03)"/><path class="cls-2" d="M187.35,257.13a5.71,5.71,0,0,0-2.39,4.56c0,1.77,1.07,2.58,2.39,1.81a5.73,5.73,0,0,0,2.39-4.57C189.74,257.17,188.67,256.36,187.35,257.13Z" transform="translate(-127.18 -88.03)"/><polygon class="cls-2" points="58.61 175.6 60.53 176.71 63.46 170 61.62 168.91 58.61 175.6"/><path class="cls-18" d="M189.28,258.24a5.73,5.73,0,0,0-2.39,4.57c0,1.76,1.07,2.57,2.39,1.81a5.74,5.74,0,0,0,2.4-4.57C191.68,258.29,190.6,257.48,189.28,258.24Z" transform="translate(-127.18 -88.03)"/><path class="cls-2" d="M185,279.51a5.73,5.73,0,0,0-2.39,4.57c0,1.76,1.07,2.57,2.39,1.81a5.74,5.74,0,0,0,2.39-4.57C187.41,279.56,186.34,278.75,185,279.51Z" transform="translate(-127.18 -88.03)"/><polygon class="cls-2" points="56.28 197.99 58.2 199.09 61.13 192.38 59.29 191.29 56.28 197.99"/><path class="cls-18" d="M187,280.62a5.74,5.74,0,0,0-2.39,4.57c0,1.76,1.07,2.57,2.39,1.81a5.74,5.74,0,0,0,2.4-4.57C189.35,280.67,188.27,279.86,187,280.62Z" transform="translate(-127.18 -88.03)"/><path class="cls-2" d="M148.8,258.37a5.73,5.73,0,0,0-2.39,4.57c0,1.76,1.07,2.57,2.39,1.81a5.74,5.74,0,0,0,2.39-4.57C151.19,258.41,150.12,257.61,148.8,258.37Z" transform="translate(-127.18 -88.03)"/><polygon class="cls-2" points="20.05 176.84 21.98 177.95 24.91 171.24 23.07 170.16 20.05 176.84"/><path class="cls-18" d="M150.73,259.48a5.74,5.74,0,0,0-2.39,4.57c0,1.77,1.07,2.57,2.39,1.81a5.73,5.73,0,0,0,2.39-4.57C153.12,259.53,152.05,258.72,150.73,259.48Z" transform="translate(-127.18 -88.03)"/><path class="cls-2" d="M211.4,250.69c-1.23-.77-7.41,2.84-7.41,2.84l-8.55,2.86.66,6.44a5.51,5.51,0,0,0,7.25.41c2.5-1.69,6.91-4.32,8.31-7.2S212.62,251.45,211.4,250.69Z" transform="translate(-127.18 -88.03)"/><path class="cls-21" d="M151.64,195.71l-6,9.56s1.83,2,7.64-.91A49.21,49.21,0,0,1,164,200.17l-1.09-5.1Z" transform="translate(-127.18 -88.03)"/><path class="cls-3" d="M154.33,179.2c-1.7,1.46-4.29,6.66-6.31,11a14.17,14.17,0,0,0,8.16,4.15c1.36-2.53,2.58-4.85,2.58-4.85l2.3-11.26S157.19,176.74,154.33,179.2Z" transform="translate(-127.18 -88.03)"/><path class="cls-7" d="M168.85,159c-2.42-1.69-7.09-1.16-9.11,3.11-1.12,2.37.46,8.74.71,13.21a10.92,10.92,0,0,1-1,5.68l3.09,1.28a9.35,9.35,0,0,0,6.31,0l-.1-5.5s3.33-.5,3.91-1c1.41-1.28,2.15-5.11,1.5-10C173.19,158.39,169.75,159.64,168.85,159Z" transform="translate(-127.18 -88.03)"/><path class="cls-18" d="M199.88,227.07c-1.61-5.3-2.89-7.43-6.31-8.8-4.93-2-25.81,4.75-25.81,4.75l-15,.78s-.77,6.11,3.54,9.23,14.61,6.2,22.05,2.31c3.55-1.86,7.44-4,10.86-5.85a29,29,0,0,1,1.64,5.8,114.38,114.38,0,0,1,1.71,11.92c.16,3.43.48,8.5.48,8.5a8.38,8.38,0,0,0,8,1.23c4.39-1.72,3.46-5.64,3.46-5.64S201,230.87,199.88,227.07Z" transform="translate(-127.18 -88.03)"/><path class="cls-22" d="M177.2,198.47c1.82-3.9-2.32-11-3.48-13.51s-4.87-4.08-4.87-4.08l-11.27-1.68s-4.93,8.58-5.59,13.69c-.46,3.59-.09,10.21.1,19.31.14,6.16-3.43,10-.83,12.64,4,4.08,13,6.92,18.06,5.56,3-.81,5.1-3.93,7.13-6.42,2.23-2.74,3.39-9.32.52-12C176.61,212,173.47,206.43,177.2,198.47Z" transform="translate(-127.18 -88.03)"/><path class="cls-3" d="M168.8,179.31s-4.51,1.33-7.16-.74c-3.76-2.93-4.18,1.19-4.18,1.19a9.86,9.86,0,0,0,4.73,3.22,11.46,11.46,0,0,0,9.08-.72C171.29,180.23,168.8,179.31,168.8,179.31Z" transform="translate(-127.18 -88.03)"/><path class="cls-7" d="M203,196.62c-3.43-2.61-4.14,3-5.67,3.19A82.42,82.42,0,0,0,184.24,203s-7.89-17.7-11.38-18c-1.82-.17-3.71,3.14-3.53,7.27.24,5.29,9.7,18.72,9.7,18.72,3.71,2.2,17.06-4.53,19.85-6,2.4-1.25,7-1.45,8.37-3.23.72-.91.36-3.18-.3-4.24C206.39,196.59,205.86,195.83,203,196.62Z" transform="translate(-127.18 -88.03)"/><path class="cls-3" d="M173.11,184c-1.91-.64-5,4.21-4.43,8.92.36,2.91,2.42,6.82,4.37,10.09,4.59.17,8.92-2.12,8.72-7.58C179.37,190.72,176.91,185.24,173.11,184Z" transform="translate(-127.18 -88.03)"/><path class="cls-2" d="M171.85,167.67c.37-1.23,1.21-4.09,1.42-5.24a5.62,5.62,0,0,0-1.51-5.23c-1.83-1.9-8.17-2.52-10.46-1.19s-7.18,3.75-5.47,11.66c1.37,6.39,2.71,7.11,4.64,8.61a11.07,11.07,0,0,0,4.66,1.64,5.51,5.51,0,0,0,2-3.62,30.53,30.53,0,0,0,0-3.08s-1.69-3.34-.38-4.53,2.82.75,3.15,1.56c1.14,2.86.58,8.25.58,8.25a4.91,4.91,0,0,0,3.38.67c.92-.23.11-3.82.11-3.82S172.13,172.45,171.85,167.67Z" transform="translate(-127.18 -88.03)"/><path class="cls-4" d="M151.24,195l-5.12-3c-5.4-3.12-9.82.22-9.82,7.42v20.57l24.76,14.29V213.79C161.06,206.59,156.64,198.14,151.24,195Z" transform="translate(-127.18 -88.03)"/><polygon class="cls-4" points="11.97 108.59 12.41 103.6 8.21 106.09 11.97 108.59"/><polygon class="cls-4" points="29.79 148.75 33.88 146.32 29.04 141.56 29.79 148.75"/><path class="cls-5" d="M147.15,197.45l-5.12-3c-5.4-3.11-9.82.23-9.82,7.43v20.56L157,236.78V216.22C157,209,152.55,200.57,147.15,197.45Z" transform="translate(-127.18 -88.03)"/><path class="cls-2" d="M144.73,229.15c.2-6.78,0-12.3,0-14.57,0-2.93-3.21-3.07-3.21-.13,0,4.35-.44,13.71-.37,15.88.15,4.7-2.77,19.46,16,20,1.88.06,9.54-.44,10.9-1.33a32.22,32.22,0,0,1-12.6-3.61C143.26,244.25,144.57,235,144.73,229.15Z" transform="translate(-127.18 -88.03)"/><path class="cls-7" d="M181.29,161.81c0,.06,2.75,2.15,4.09,2.38s2.51.38,1.7,1.13c-.41.37-3.16.57-3.16.57s2.43,5.29.89,6.73c-2.21,2.07-5.26.28-6.36-2.63s-1.25-8-1.25-8Z" transform="translate(-127.18 -88.03)"/><path class="cls-11" d="M182,158.44a32.14,32.14,0,0,1,0,3.39c-.11,1.26-3.48,2.88-4.57,1.76a10.79,10.79,0,0,1-1.79-3.64Z" transform="translate(-127.18 -88.03)"/><path class="cls-9" d="M180.64,109.27c3.77,1.36,2.72,11.26,2.82,15s-1.35,28.78-1.32,32.59-2.64,6-6,4.52-4.18-20.67-4.48-22.72S169,105.07,180.64,109.27Z" transform="translate(-127.18 -88.03)"/><polygon class="cls-8" points="83.51 90.06 76.65 86.09 84.58 81.52 91.44 85.48 83.51 90.06"/><polygon class="cls-23" points="83.62 89.17 78.18 86.03 84.47 82.4 89.91 85.54 83.62 89.17"/><polygon class="cls-8" points="116.26 107.54 109.4 103.58 117.32 99.01 124.19 102.97 116.26 107.54"/><polygon class="cls-23" points="116.37 106.66 110.92 103.52 117.21 99.89 122.66 103.03 116.37 106.66"/><polygon class="cls-8" points="109.75 84.17 102.89 80.21 110.81 75.64 117.67 79.6 109.75 84.17"/><polygon class="cls-23" points="109.86 83.29 104.42 80.15 110.7 76.52 116.15 79.66 109.86 83.29"/><polygon class="cls-4" points="80.65 99.1 73.79 95.14 81.71 90.56 88.58 94.53 80.65 99.1"/><polygon class="cls-5" points="80.76 98.22 75.32 95.08 81.6 91.45 87.05 94.59 80.76 98.22"/><polygon class="cls-4" points="125.6 93.35 118.74 89.38 126.67 84.81 133.53 88.77 125.6 93.35"/><polygon class="cls-5" points="125.71 92.46 120.27 89.32 126.56 85.69 132 88.83 125.71 92.46"/><polygon class="cls-4" points="100.83 89.14 93.97 85.18 101.89 80.61 108.75 84.57 100.83 89.14"/><polygon class="cls-5" points="100.94 88.26 95.5 85.12 101.78 81.49 107.23 84.63 100.94 88.26"/><polygon class="cls-4" points="108.22 103 101.36 99.04 109.28 94.46 116.15 98.43 108.22 103"/><polygon class="cls-5" points="108.33 102.12 102.89 98.98 109.17 95.35 114.62 98.49 108.33 102.12"/><polygon class="cls-20" points="90.91 94.16 84.04 90.19 91.97 85.62 98.83 89.58 90.91 94.16"/><polygon class="cls-19" points="91.02 93.27 85.57 90.13 91.86 86.5 97.3 89.64 91.02 93.27"/><polygon class="cls-20" points="83.81 80.69 76.94 76.72 84.87 72.15 91.73 76.11 83.81 80.69"/><polygon class="cls-19" points="83.91 79.8 78.47 76.66 84.76 73.03 90.2 76.17 83.91 79.8"/><polygon class="cls-20" points="134.73 87.65 127.87 83.69 135.79 79.12 142.65 83.08 134.73 87.65"/><polygon class="cls-19" points="134.84 86.77 129.39 83.63 135.68 80 141.13 83.14 134.84 86.77"/><polygon class="cls-20" points="117.14 88.44 110.28 84.48 118.2 79.9 125.07 83.87 117.14 88.44"/><polygon class="cls-19" points="117.25 87.56 111.81 84.42 118.09 80.79 123.54 83.93 117.25 87.56"/><polygon class="cls-9" points="99.63 98.42 92.76 94.46 100.69 89.89 107.55 93.85 99.63 98.42"/><polygon class="cls-10" points="99.74 97.54 94.29 94.4 100.58 90.77 106.02 93.91 99.74 97.54"/><polygon class="cls-9" points="71.58 104.57 64.72 100.61 72.64 96.03 79.51 99.99 71.58 104.57"/><polygon class="cls-10" points="71.69 103.69 66.25 100.54 72.54 96.91 77.98 100.06 71.69 103.69"/><polygon class="cls-9" points="133.46 98.07 126.59 94.11 134.52 89.53 141.38 93.49 133.46 98.07"/><polygon class="cls-10" points="133.57 97.19 128.12 94.04 134.41 90.41 139.85 93.56 133.57 97.19"/><polygon class="cls-9" points="75.33 85.62 68.47 81.66 76.39 77.08 83.25 81.04 75.33 85.62"/><polygon class="cls-10" points="75.44 84.74 70 81.59 76.28 77.96 81.73 81.11 75.44 84.74"/><polygon class="cls-14" points="100.53 22.97 98.95 23.88 98.95 21.77 100.53 20.86 100.53 22.97"/><polygon class="cls-16" points="97.38 22.97 98.95 23.88 98.95 21.77 97.38 20.86 97.38 22.97"/><polygon class="cls-17" points="100.53 20.86 98.95 19.95 97.38 20.86 98.95 21.77 100.53 20.86"/><path class="cls-18" d="M225.84,108.81c0-.09.13-.16.3-.16s.3.07.3.16-.14.16-.3.16S225.84,108.9,225.84,108.81Z" transform="translate(-127.18 -88.03)"/><path class="cls-18" d="M226.77,110.06a.4.4,0,0,1-.17.32c-.09.05-.16,0-.16-.13a.4.4,0,0,1,.16-.32C226.7,109.88,226.77,109.93,226.77,110.06Z" transform="translate(-127.18 -88.03)"/><path class="cls-18" d="M227.52,109.63a.41.41,0,0,1-.17.32c-.09,0-.17,0-.17-.13a.41.41,0,0,1,.17-.32C227.44,109.45,227.52,109.5,227.52,109.63Z" transform="translate(-127.18 -88.03)"/><path class="cls-18" d="M226.77,111a.4.4,0,0,1-.17.33c-.09,0-.16,0-.16-.13a.39.39,0,0,1,.16-.32C226.7,110.79,226.77,110.85,226.77,111Z" transform="translate(-127.18 -88.03)"/><path class="cls-18" d="M227.52,110.55a.43.43,0,0,1-.17.32c-.09,0-.17,0-.17-.13a.41.41,0,0,1,.17-.32C227.44,110.37,227.52,110.42,227.52,110.55Z" transform="translate(-127.18 -88.03)"/><path class="cls-18" d="M224.81,109.63a.4.4,0,0,0,.16.32c.1,0,.17,0,.17-.13a.38.38,0,0,0-.17-.32C224.88,109.45,224.81,109.5,224.81,109.63Z" transform="translate(-127.18 -88.03)"/><path class="cls-18" d="M225.55,111a.43.43,0,0,0,.17.33c.09,0,.17,0,.17-.13a.39.39,0,0,0-.17-.32C225.63,110.79,225.55,110.85,225.55,111Z" transform="translate(-127.18 -88.03)"/><polygon class="cls-14" points="96.95 23.57 95.38 24.48 95.38 22.38 96.95 21.47 96.95 23.57"/><polygon class="cls-16" points="93.8 23.57 95.38 24.48 95.38 22.38 93.8 21.47 93.8 23.57"/><polygon class="cls-17" points="96.95 21.47 95.38 20.56 93.8 21.47 95.38 22.38 96.95 21.47"/><path class="cls-18" d="M221.61,109.5c0-.09.13-.16.3-.16s.29.07.29.16-.13.16-.29.16S221.61,109.59,221.61,109.5Z" transform="translate(-127.18 -88.03)"/><path class="cls-18" d="M223,109.5c0-.09.13-.16.3-.16s.29.07.29.16-.13.16-.29.16S223,109.59,223,109.5Z" transform="translate(-127.18 -88.03)"/><path class="cls-18" d="M223.19,110.66a.4.4,0,0,1-.17.33c-.09.05-.16,0-.16-.13a.39.39,0,0,1,.16-.32C223.12,110.48,223.19,110.54,223.19,110.66Z" transform="translate(-127.18 -88.03)"/><path class="cls-18" d="M223.94,110.24a.43.43,0,0,1-.17.32c-.09,0-.17,0-.17-.13a.41.41,0,0,1,.17-.32C223.86,110.06,223.94,110.11,223.94,110.24Z" transform="translate(-127.18 -88.03)"/><path class="cls-18" d="M223.19,111.58a.37.37,0,0,1-.17.32c-.09.06-.16,0-.16-.12a.39.39,0,0,1,.16-.32C223.12,111.4,223.19,111.46,223.19,111.58Z" transform="translate(-127.18 -88.03)"/><path class="cls-18" d="M223.58,110.91a.38.38,0,0,1-.17.32c-.09.06-.16,0-.16-.13a.42.42,0,0,1,.16-.32C223.51,110.73,223.58,110.79,223.58,110.91Z" transform="translate(-127.18 -88.03)"/><path class="cls-18" d="M223.94,111.15a.43.43,0,0,1-.17.33c-.09,0-.17,0-.17-.13a.41.41,0,0,1,.17-.32C223.86,111,223.94,111,223.94,111.15Z" transform="translate(-127.18 -88.03)"/><path class="cls-18" d="M221.23,110.24a.4.4,0,0,0,.17.32c.09,0,.16,0,.16-.13a.4.4,0,0,0-.16-.32C221.3,110.06,221.23,110.11,221.23,110.24Z" transform="translate(-127.18 -88.03)"/><path class="cls-18" d="M222,111.58a.39.39,0,0,0,.17.32c.1.06.17,0,.17-.12a.37.37,0,0,0-.17-.32C222.05,111.4,222,111.46,222,111.58Z" transform="translate(-127.18 -88.03)"/><path class="cls-18" d="M221.56,110.91a.41.41,0,0,0,.17.32c.1.06.17,0,.17-.13a.4.4,0,0,0-.17-.32C221.64,110.73,221.56,110.79,221.56,110.91Z" transform="translate(-127.18 -88.03)"/><path class="cls-9" d="M227.75,218.43c0-1.42,2.25-2.58,4.92-2.58s4.76,1.16,4.76,2.58-2.09,2.57-4.76,2.57S227.75,219.85,227.75,218.43Z" transform="translate(-127.18 -88.03)"/><rect class="cls-9" x="100.57" y="122.74" width="9.67" height="7.66"/><path class="cls-17" d="M227.75,210.77c0-1.42,2.25-2.57,4.92-2.57s4.76,1.15,4.76,2.57-2.09,2.57-4.76,2.57S227.75,212.19,227.75,210.77Z" transform="translate(-127.18 -88.03)"/><path class="cls-11" d="M232.65,210c1.87,0,3.41.62,4,1.5a1.42,1.42,0,0,0,.27-.8c0-1.28-1.87-2.32-4.28-2.32s-4.43,1-4.43,2.32a1.39,1.39,0,0,0,.3.8C229.16,210.59,230.78,210,232.65,210Z" transform="translate(-127.18 -88.03)"/><path class="cls-19" d="M232.65,213c1.87,0,3.41-.63,4-1.51-.6-.88-2.14-1.5-4-1.5s-3.49.62-4.13,1.5C229.16,212.35,230.78,213,232.65,213Z" transform="translate(-127.18 -88.03)"/><path class="cls-11" d="M236.18,213.34c-.4.29-.25,1.06.22,1.48a2.46,2.46,0,0,1,1,2.4c-.1,1-1.16.56-1.16,1.4,0,.58.73.8,1.55.2s1.2-1.8.58-3.74S236.87,212.85,236.18,213.34Z" transform="translate(-127.18 -88.03)"/><path class="cls-9" d="M211.64,150.79c0-1.42,2.25-2.57,4.92-2.57s4.75,1.15,4.75,2.57-2.08,2.57-4.75,2.57S211.64,152.21,211.64,150.79Z" transform="translate(-127.18 -88.03)"/><rect class="cls-9" x="84.46" y="55.11" width="9.67" height="7.66"/><path class="cls-17" d="M211.64,143.14c0-1.43,2.25-2.58,4.92-2.58s4.75,1.15,4.75,2.58-2.08,2.57-4.75,2.57S211.64,144.56,211.64,143.14Z" transform="translate(-127.18 -88.03)"/><path class="cls-11" d="M216.54,142.33c1.87,0,3.4.63,4,1.51a1.44,1.44,0,0,0,.28-.81c0-1.28-1.88-2.32-4.28-2.32s-4.43,1-4.43,2.32a1.33,1.33,0,0,0,.3.81C213,143,214.67,142.33,216.54,142.33Z" transform="translate(-127.18 -88.03)"/><path class="cls-19" d="M216.54,145.35c1.87,0,3.4-.63,4-1.51-.6-.88-2.13-1.51-4-1.51s-3.5.63-4.13,1.51C213,144.72,214.67,145.35,216.54,145.35Z" transform="translate(-127.18 -88.03)"/><path class="cls-11" d="M220.06,145.71c-.39.28-.24,1.06.23,1.47a2.49,2.49,0,0,1,1,2.4c-.11,1-1.17.56-1.17,1.4,0,.59.74.8,1.56.2s1.2-1.79.58-3.74S220.75,145.22,220.06,145.71Z" transform="translate(-127.18 -88.03)"/><path class="cls-18" d="M232.83,213a9.06,9.06,0,0,1-.48,2.94,7.42,7.42,0,0,1-1.28,2l.18.21a9.71,9.71,0,0,0,1.34-2,17.17,17.17,0,0,0,.55-3.19S233,212.71,232.83,213Z" transform="translate(-127.18 -88.03)"/><polygon class="cls-18" points="104.21 128.47 105.32 129.51 103.89 131.15 102.73 130.08 104.21 128.47"/><path class="cls-19" d="M239.6,148.59c0-1.41-2.21-2.54-4.85-2.54s-4.69,1.13-4.69,2.54,2.06,2.53,4.69,2.53S239.6,150,239.6,148.59Z" transform="translate(-127.18 -88.03)"/><rect class="cls-19" x="230.06" y="141.03" width="9.54" height="7.55" transform="translate(342.48 201.59) rotate(180)"/><path class="cls-17" d="M239.6,141c0-1.4-2.21-2.53-4.85-2.53s-4.69,1.13-4.69,2.53,2.06,2.54,4.69,2.54S239.6,142.44,239.6,141Z" transform="translate(-127.18 -88.03)"/><path class="cls-20" d="M234.77,140.24c-1.84,0-3.36.62-4,1.49a1.42,1.42,0,0,1-.27-.8c0-1.26,1.85-2.28,4.22-2.28s4.37,1,4.37,2.28a1.38,1.38,0,0,1-.29.8C238.22,140.86,236.62,140.24,234.77,140.24Z" transform="translate(-127.18 -88.03)"/><path class="cls-19" d="M234.77,143.22c-1.84,0-3.36-.62-4-1.49.59-.87,2.11-1.49,4-1.49s3.45.62,4.08,1.49C238.22,142.6,236.62,143.22,234.77,143.22Z" transform="translate(-127.18 -88.03)"/><path class="cls-20" d="M231.29,143.57c.39.28.24,1.05-.22,1.46a2.43,2.43,0,0,0-1,2.36c.1,1,1.15.55,1.15,1.38,0,.58-.73.79-1.54.2-.66-.49-1.18-1.77-.57-3.69S230.62,143.09,231.29,143.57Z" transform="translate(-127.18 -88.03)"/><path class="cls-18" d="M237.33,142.87s.2,0,.23.41a7.13,7.13,0,0,0,.46,2.34,7.54,7.54,0,0,0,1.27,2l-.17.21a9.3,9.3,0,0,1-1.34-1.95,12.37,12.37,0,0,1-.48-2.49.49.49,0,0,0-.38-.46S237.21,142.6,237.33,142.87Z" transform="translate(-127.18 -88.03)"/><polygon class="cls-18" points="111.79 58.17 110.68 59.22 112.11 60.85 113.26 59.78 111.79 58.17"/></svg>