<svg id="Layer_1" data-name="Layer 1" xmlns="http://www.w3.org/2000/svg" viewBox="0 0 57.56 114.48"><defs><style>.cls-1{fill:#457ec0;}.cls-2{fill:#422522;}.cls-3{fill:#5f3d37;}.cls-4{fill:#fbc4b3;}.cls-5{fill:#c19d99;}.cls-6{fill:#331a1a;}.cls-7{fill:#f8bd38;}.cls-8{fill:#f28b34;}</style></defs><title>mago</title><path class="cls-1" d="M180.15,256.33c0-8.46,12.89-15.31,28.78-15.31s28.78,6.85,28.78,15.31-12.88,15.31-28.78,15.31S180.15,264.79,180.15,256.33Z" transform="translate(-180.15 -157.16)"/><path class="cls-2" d="M184.41,254.53c0-7.23,11-13.09,24.61-13.09s24.61,5.86,24.61,13.09-11,13.09-24.61,13.09S184.41,261.76,184.41,254.53Z" transform="translate(-180.15 -157.16)"/><rect class="cls-2" x="4.26" y="94.2" width="49.22" height="3.98"/><path class="cls-3" d="M184.41,251.36c0-7.23,11-13.09,24.61-13.09s24.61,5.86,24.61,13.09-11,13.09-24.61,13.09S184.41,258.59,184.41,251.36Z" transform="translate(-180.15 -157.16)"/><path class="cls-2" d="M226.7,249.94c-.35-2.36-1-7.28-1.2-10.59s-1.63-6.23-1.85-11c-.43-9-2.81-21-3-23.86s3.71-13.79,2.32-17.1-6.68-6.46-6.68-6.46l-10.93-1.27s-3.4-2.74-5.87,0c-1.57,1.74-2.47,9.82-2.93,13.51-.41,3.25,1.34,6.72.69,14.1-.12,1.4-.94,11.43-2.26,17.11-2,8.75-3.12,21.57-3.67,25.73a6,6,0,0,0-.14,1.12v.08c0,3.42,3.06,3.39,8.36,6,2.6,1.28,4,2.91,9.42,2.91,3.46,0,5.61-1.53,8.34-2.43,1.84-.61,4.62.24,5.93-.67,2.32-1.6,3.7-3.61,3.7-5.8A5.26,5.26,0,0,0,226.7,249.94Z" transform="translate(-180.15 -157.16)"/><path class="cls-4" d="M213.49,169.7a6.21,6.21,0,0,0-9.59,3.58c-1.91,5.93,3.62,13.11,6.42,11.79,1.56-.75,4.82-3.32,5.67-6.44C217,175.12,215.3,171,213.49,169.7Z" transform="translate(-180.15 -157.16)"/><path class="cls-5" d="M216.7,179.65c0-1.16-.33-2.25-.32-4.64s-2.16.85-2.16.85a5.29,5.29,0,0,1,0,3,6,6,0,0,1-3.12,4.25c-2.17,1.19-3.21.85-4.29.23-2.1-1.2-3.17-6-3.17-6a12.79,12.79,0,0,0-2,4.54c-.17,1.31.21,1.55.5,3.31.22,1.24-1.12,2.39-1,3.68s1.16,1.86.62,3.4c-.6,1.7.14,3.58-.35,5.45-.91,3.51,1.35,4.75,1.35,4.75s-.46-2.24,1.28-2.94a13.64,13.64,0,0,0,4.4-2.43c3.63-2.36,3-4.2,3.9-5.87s2.09-.58,3.9-7.37A21.65,21.65,0,0,0,216.7,179.65Z" transform="translate(-180.15 -157.16)"/><ellipse class="cls-3" cx="30.43" cy="14.41" rx="10.05" ry="5.35"/><path class="cls-2" d="M204.14,170.37c0-1.89,2.88-3.42,6.44-3.42s6.44,1.53,6.44,3.42-2.89,3.42-6.44,3.42S204.14,172.26,204.14,170.37Z" transform="translate(-180.15 -157.16)"/><path class="cls-2" d="M204.14,170.37a18.94,18.94,0,0,1,.31-3.42c.32-1.57,1-3,1-3.45-.12-1.51,1.7-.62,2.28-1.08s-.66-1.16-.16-2.13c.12-.23,1.31-.42,2.09-.65s1.39-2.2,2.2-2.43a15.17,15.17,0,0,1,6.14,1.12c1.16.69,3.24,3.24,3.36,4.28s-.7,1.09-1.27.62a5.74,5.74,0,0,0-3-1.43,5.34,5.34,0,0,0-1.59.08A21.11,21.11,0,0,1,217,165c.69,1.73,0,5.36,0,5.36Z" transform="translate(-180.15 -157.16)"/><path class="cls-6" d="M222.64,240a34.25,34.25,0,0,1-8.49,6.44c-4.79,2.42-13.5,3.66-13.5,3.66s9.24,3.28,16-1.42A14,14,0,0,0,222.64,240Z" transform="translate(-180.15 -157.16)"/><path class="cls-6" d="M222,232.21a47,47,0,0,1-7.1,6.94c-4.17,3.25-7.26,5.19-7.26,5.19a17.12,17.12,0,0,0,9.36-2.9C221.56,238.35,222,232.21,222,232.21Z" transform="translate(-180.15 -157.16)"/><path class="cls-6" d="M201,222.78c.79,1.43,1.86,2.8,3.34,2.87a51.81,51.81,0,0,1-2.08-5.05c-1.69-5-2.61-14.75-2.61-14.75S198,217.24,201,222.78Z" transform="translate(-180.15 -157.16)"/><path class="cls-6" d="M216.74,200s-4.17,8.81-6.49,11.59-7.22,5.87-7.22,5.87,5.2,1.08,9.69-4.79A20.46,20.46,0,0,0,216.74,200Z" transform="translate(-180.15 -157.16)"/><path class="cls-6" d="M197.48,225.1s-.87,9.27,1.91,13a23,23,0,0,0,4.32,4.77,39.53,39.53,0,0,1-3.12-7.25C198.88,229.73,197.48,225.1,197.48,225.1Z" transform="translate(-180.15 -157.16)"/><path class="cls-6" d="M200.53,178.82a3.85,3.85,0,0,0-2.46,1.67,24.68,24.68,0,0,0-3.26,6.65c-1.67,4.94-1.83,6.17-2.6,7.56a33,33,0,0,0-2.32,7.81c0,1.15-1.08,3.63,0,5.63s.54,5.34,4.86,5.23c.8,0,2-2,2.6-3.45s1.12-5.92.72-11.35c-.1-1.42-.11-6.34,0-8A42.14,42.14,0,0,1,200.53,178.82Z" transform="translate(-180.15 -157.16)"/><path class="cls-4" d="M217.74,221.4s-1.17,2.1-.31,3.45c-.13,1,0,1.28,1.28,2.3.42.34,1.1,0,1.68,0a5,5,0,0,0,1.47.15c.39-.08.83-.86,1.08-.79,1,.29,1.11-1.62,1.19-2.17.05-.34-.08-2.51-.08-2.51Z" transform="translate(-180.15 -157.16)"/><path class="cls-6" d="M221.39,185c-2.52.27-3,4.49-3.52,7.93s1.66,9.35,2.57,13.06c-1,3.47-2.55,7.27-2.57,8.37s-1,5.44-.85,7.3c.65.93,1.86,3.16,5,2.68a3.65,3.65,0,0,0,2.85-2.16s2.26-12,2.67-16.19-.81-13.34-2-16.3S222.76,184.81,221.39,185Z" transform="translate(-180.15 -157.16)"/><path class="cls-7" d="M191.89,231.59a76.89,76.89,0,0,0,1.63-15.07c0-1.86-.05-4.18-.18-6.6h-2.19s.64,11.82.58,16.1-2.49,10.9-2.32,13.56,1.74,14.95,1.74,14.95a4.35,4.35,0,0,0,1.12.7c-.37-4.29-.94-10.61-1.12-12.39A32.55,32.55,0,0,1,191.89,231.59Z" transform="translate(-180.15 -157.16)"/><path class="cls-7" d="M194.33,191.27s3.91-3.64,4.49-6.32a23.82,23.82,0,0,0,.27-6.13,6,6,0,0,0-1.74,2.14c-.54,1.1-.28,4.14-.65,5.1a5.7,5.7,0,0,1-3.18,3l-.8.69s-1.74-6-2.44-9.5.35-4.4,2.43-7.88a24.16,24.16,0,0,0,2.59-5.85c-.43-1.43-1.06-2.32-1.75-2.14-1.28.33-1.73,3.26-2.4,5.33-1,3.15-4.11,8-2.66,12.39a69.52,69.52,0,0,1,2.66,10.32c.36,3.22-.23,9.47-.1,13,0,.47,1.24.69,2,.45-.19-3.2-.39-6.27-.39-8.44C192.71,192.66,194.33,191.27,194.33,191.27Z" transform="translate(-180.15 -157.16)"/><path class="cls-8" d="M193.64,254.75c.58-1.5-1.28-12.7-1-14.78s1.25-10.41,1.6-16.7,0-13.35,0-13.35h-.88c.13,2.42.22,4.74.18,6.6a76.89,76.89,0,0,1-1.63,15.07,32.55,32.55,0,0,0-.74,11.25c.18,1.78.75,8.1,1.12,12.39C192.8,255.44,193.37,255.46,193.64,254.75Z" transform="translate(-180.15 -157.16)"/><path class="cls-8" d="M193.8,205.23c.09-.61.53-14,.53-14s-1.62,1.39-1.62,6.14c0,2.17.2,5.24.39,8.44C193.47,205.74,193.75,205.55,193.8,205.23Z" transform="translate(-180.15 -157.16)"/><path class="cls-8" d="M190.28,180.26c.7,3.48,2.44,9.5,2.44,9.5l.8-.69s-2.08-8-1.79-10.63,4.08-6.21,4.08-8.07a13.9,13.9,0,0,0-.51-3.84,24.16,24.16,0,0,1-2.59,5.85C190.63,175.86,189.58,176.79,190.28,180.26Z" transform="translate(-180.15 -157.16)"/><path class="cls-4" d="M190,204.28c-1.41.71-.5,1.12-1,2.47-.44,1.17-.82,2.09-.12,2.9a7,7,0,0,0,2.24,1.93,3.59,3.59,0,0,0,3.4-.81,1.38,1.38,0,0,0,.17-1.35,1.26,1.26,0,0,0,0-1.55,2.39,2.39,0,0,0-.06-2.43C193.92,204.67,191.65,203.45,190,204.28Z" transform="translate(-180.15 -157.16)"/></svg>