<svg id="Layer_1" data-name="Layer 1" xmlns="http://www.w3.org/2000/svg" viewBox="0 0 217.66 139.98"><defs><style>.cls-1{fill:#457ec0;}.cls-2{fill:#badaf2;}.cls-3{fill:#a4c03a;}.cls-4{fill:#95aa3b;}.cls-5{fill:#54b7e8;}.cls-6{fill:#5f3d37;}.cls-7{fill:#fff;}.cls-8{fill:#68200f;}.cls-9{fill:#f07f22;}.cls-10{fill:#a03422;}.cls-11{fill:#531d0c;}.cls-12{fill:#bc4d27;}.cls-13{fill:#ec7d5f;}.cls-14{fill:#f2a31e;}.cls-15{fill:#2f6bb4;}.cls-16{fill:#8abee7;}.cls-17{fill:#fbc4b3;}.cls-18{fill:#20539a;}.cls-19{fill:#f9ad98;}.cls-20{fill:#a04123;}.cls-21{fill:#f05451;}.cls-22{fill:#c02126;}.cls-23{fill:#ee372a;}.cls-24{fill:#97c7eb;}.cls-25{fill:#75b3dd;}.cls-26{fill:#77973d;}.cls-27{fill:#734d48;}.cls-28{fill:#f05151;}</style></defs><title>mapa</title><polygon class="cls-1" points="128.26 139.98 0 66.02 89.4 14.43 217.66 88.38 128.26 139.98"/><polygon class="cls-2" points="127.93 134.36 3.57 62.57 89.54 12.93 213.9 84.73 127.93 134.36"/><polygon class="cls-3" points="128.24 131.94 7.77 62.38 89.23 15.35 209.7 84.91 128.24 131.94"/><path class="cls-4" d="M263.39,213.33s-8.88,6.88-6.67,13.59,10.28,9.53,12,16.37-4.5,15.19,4.69,24.85,18.58,10.28,23.47,14.21c4,3.18,4.64,7.72,6.05,10.74l17.73-10.24a32.62,32.62,0,0,0-10.53-10.93c-6.78-4.08-17-6-19.88-10s-.42-13.54-1.23-18.61c-1.21-7.57-12.63-12.75-14.11-15.82-1.2-2.5,2-6.37,2-6.37Z" transform="translate(-142.52 -179.7)"/><path class="cls-4" d="M190.08,219.11c.2-.12,18.91,5,20.45,12.26s-.81,10.63,3.1,12.95,17.13,9.64,18.19,18-12,19.87-12,19.87l-14.36-8.29s10.62-6.7,7.61-11.78-13-7.82-17.79-11.81-1.9-8.93-4.39-12.57c-3.38-4.94-18.13-8.63-18.13-8.63Z" transform="translate(-142.52 -179.7)"/><path class="cls-5" d="M215.41,279.68a42.74,42.74,0,0,0,10.7-11.56c4-6.8-2.59-14.26-13.2-19.68s-4.42-10.3-7.73-16.24c-2.8-5-16.34-9.11-20.2-10.15l-8.4,4.88c2.68.77,10.27,2.79,14.48,5.22,6.35,3.67,4,8.29,5.52,14.17s14.74,8,18.81,15.61-7.35,13.5-7.35,13.5Z" transform="translate(-142.52 -179.7)"/><path class="cls-5" d="M265.34,214.46s-5.88,10.51-2.89,15c4.18,6.23,14.86,11.22,11.67,21.46s1.81,18.39,10,21.87,15.93,6,19.9,9.68c4.19,3.85,5.13,7,5.13,7l7.78-4.32s-4.14-7-8.27-9.22c-5.95-3.18-12.65-4.43-18.54-7.45-7.26-3.72-8.84-9.27-7.73-14.42.91-4.2,2.62-11-.18-15.4-3.43-5.38-12.91-8.34-13.14-13.07-.11-2.29,4.37-6.45,4.37-6.45Z" transform="translate(-142.52 -179.7)"/><path class="cls-6" d="M240.87,246.93l-12.08,1.77a49.92,49.92,0,0,0,4.09,7l12.36-2.52A36.33,36.33,0,0,1,240.87,246.93Z" transform="translate(-142.52 -179.7)"/><path class="cls-6" d="M250.61,258.64l-12.12,3.63a76.65,76.65,0,0,0,6.81,5.46c2.65-1.09,8.18-3.38,10.9-4.48C254.28,261.76,252.39,260.22,250.61,258.64Z" transform="translate(-142.52 -179.7)"/><path class="cls-6" d="M262.36,267.89,252,272.6a47.65,47.65,0,0,1,5.06,4.32l11.75-4.14C266.85,271.23,264.66,269.6,262.36,267.89Z" transform="translate(-142.52 -179.7)"/><path class="cls-6" d="M238.09,220.9l-14.44,1.42a43.26,43.26,0,0,1,1.16,6.51l13.42-.9A31.3,31.3,0,0,0,238.09,220.9Z" transform="translate(-142.52 -179.7)"/><path class="cls-6" d="M237.82,235.36v-.27l-12.72.78a30.86,30.86,0,0,0,1.2,6.34l12.08-1.69A23.27,23.27,0,0,1,237.82,235.36Z" transform="translate(-142.52 -179.7)"/><path class="cls-6" d="M230.21,205.93l-11.85,4.73a33.81,33.81,0,0,1,3.07,5.43l13.39-3.69A45.16,45.16,0,0,0,230.21,205.93Z" transform="translate(-142.52 -179.7)"/><path class="cls-6" d="M258.28,304.61a104.46,104.46,0,0,0,9.91-9.57L255.89,292a52.11,52.11,0,0,1-7.84,6.74Z" transform="translate(-142.52 -179.7)"/><path class="cls-6" d="M275.45,280.87a5.76,5.76,0,0,0-.79-2l-14.34,3.4a4.92,4.92,0,0,1,.11.93,8,8,0,0,1-.74,3.32l14.28.56A10.54,10.54,0,0,0,275.45,280.87Z" transform="translate(-142.52 -179.7)"/><path class="cls-7" d="M223.33,199.94l-10.58,6.11c2.13,1.4,4.52,3.1,5.31,4.18l.3.43,11.85-4.73A27.92,27.92,0,0,0,223.33,199.94Z" transform="translate(-142.52 -179.7)"/><path class="cls-7" d="M236.64,215.93a36.32,36.32,0,0,0-1.82-3.53l-13.39,3.69a40.15,40.15,0,0,1,2.22,6.23l14.44-1.42A20.2,20.2,0,0,0,236.64,215.93Z" transform="translate(-142.52 -179.7)"/><path class="cls-7" d="M238.23,227.93l-13.42.9a44.68,44.68,0,0,1,.21,5c0,.66,0,1.35.08,2.05l12.72-.78C237.81,232.61,238.06,230.26,238.23,227.93Z" transform="translate(-142.52 -179.7)"/><path class="cls-7" d="M238.38,240.52l-12.08,1.69a44.19,44.19,0,0,0,2.49,6.49l12.08-1.77A25.72,25.72,0,0,1,238.38,240.52Z" transform="translate(-142.52 -179.7)"/><path class="cls-7" d="M248,256.15c-1-1-1.9-2-2.72-3l-12.36,2.52a46.46,46.46,0,0,0,4,5c.49.53,1,1.06,1.59,1.59l12.12-3.63C249.7,257.82,248.81,257,248,256.15Z" transform="translate(-142.52 -179.7)"/><path class="cls-7" d="M256.2,263.25c-2.72,1.1-8.25,3.39-10.9,4.48,2.25,1.65,4.54,3.27,6.65,4.87l10.41-4.71C260.35,266.4,258.26,264.85,256.2,263.25Z" transform="translate(-142.52 -179.7)"/><path class="cls-7" d="M268.76,272.78,257,276.92a11.25,11.25,0,0,1,3.31,5.33l14.34-3.4A26.06,26.06,0,0,0,268.76,272.78Z" transform="translate(-142.52 -179.7)"/><path class="cls-7" d="M274,287.06l-14.28-.56a20.16,20.16,0,0,1-3.8,5.47l12.3,3.07A41.44,41.44,0,0,0,274,287.06Z" transform="translate(-142.52 -179.7)"/><path class="cls-6" d="M278.36,251.61l-7.19,6.66c2.93,1.23,5.88,2.51,8.92,3.63l6.23-7.29C283.64,253.74,281,252.67,278.36,251.61Z" transform="translate(-142.52 -179.7)"/><path class="cls-6" d="M196.89,247.88a19.6,19.6,0,0,0-2.78-.86l-5,7c2.62.88,5,1.65,7.18,2.32l5.62-6.58C200.24,249.23,198.61,248.57,196.89,247.88Z" transform="translate(-142.52 -179.7)"/><path class="cls-6" d="M267.31,247.53A51.28,51.28,0,0,0,254.42,246l.29,7.53a38.74,38.74,0,0,1,8.15,1.57,67.84,67.84,0,0,0,5-7.41Z" transform="translate(-142.52 -179.7)"/><path class="cls-6" d="M228.71,248.56l4.15,7.11a93,93,0,0,1,12.65-2.09l-4.74-6.79C236.51,247.27,232.39,247.91,228.71,248.56Z" transform="translate(-142.52 -179.7)"/><path class="cls-6" d="M209.63,251.35l-1.08,7.83a37.65,37.65,0,0,0,13-.72l-3.76-7.73A33.57,33.57,0,0,1,209.63,251.35Z" transform="translate(-142.52 -179.7)"/><path class="cls-6" d="M301.24,256.4a24,24,0,0,1-6.56.13l-4.55,8.17a38.59,38.59,0,0,0,15.33-.39l-1.79-8.4C302.83,256.11,302,256.27,301.24,256.4Z" transform="translate(-142.52 -179.7)"/><path class="cls-6" d="M163.38,249.64l9.49,5.48c2.27-.5,4.84-1.17,7.72-1.56L179,246.25A64.12,64.12,0,0,0,163.38,249.64Z" transform="translate(-142.52 -179.7)"/><path class="cls-6" d="M332.79,253.3l-9-5.11a101.9,101.9,0,0,1-11.95,5.23l6.66,6.7A116.31,116.31,0,0,0,332.79,253.3Z" transform="translate(-142.52 -179.7)"/><path class="cls-7" d="M219.2,250.46l-1.36.27,3.76,7.73c.84-.18,1.7-.39,2.59-.62,2.75-.73,5.66-1.49,8.67-2.17l-4.15-7.11C225,249.23,221.69,249.92,219.2,250.46Z" transform="translate(-142.52 -179.7)"/><path class="cls-7" d="M201.89,249.78l-5.62,6.58a71.82,71.82,0,0,0,12.28,2.82l1.08-7.83A28.89,28.89,0,0,1,201.89,249.78Z" transform="translate(-142.52 -179.7)"/><path class="cls-7" d="M179,246.25l1.58,7.31A18.84,18.84,0,0,1,189,254l.14,0,5-7A48.39,48.39,0,0,0,179,246.25Z" transform="translate(-142.52 -179.7)"/><path class="cls-7" d="M240.77,246.79l4.74,6.79a52.35,52.35,0,0,1,9.2,0l-.29-7.53A112.24,112.24,0,0,0,240.77,246.79Z" transform="translate(-142.52 -179.7)"/><path class="cls-7" d="M267.9,247.7a67.84,67.84,0,0,1-5,7.41c.3.09.61.17.91.27,2.47.85,4.93,1.85,7.4,2.89l7.19-6.66C274.76,250.14,271.25,248.68,267.9,247.7Z" transform="translate(-142.52 -179.7)"/><path class="cls-7" d="M286.32,254.61l-6.23,7.29a55.92,55.92,0,0,0,10,2.8l4.55-8.17A41.05,41.05,0,0,1,286.32,254.61Z" transform="translate(-142.52 -179.7)"/><path class="cls-7" d="M318.47,260.12l-6.66-6.7a70.06,70.06,0,0,1-8.14,2.49l1.79,8.4q1-.21,2-.48A109.2,109.2,0,0,0,318.47,260.12Z" transform="translate(-142.52 -179.7)"/><path class="cls-8" d="M306.53,243.58a2,2,0,0,0,1,1.67,4.25,4.25,0,0,0,2.41.58l.09-.22s-1.74.1-2.42-.74a3,3,0,0,1-.74-1.29Z" transform="translate(-142.52 -179.7)"/><path class="cls-9" d="M322.45,238a2.1,2.1,0,0,1,1.72,0c.76.36,1.81,2.39,1.86,4.11s.08,2.78.82,3.52c-.67,0-.92-.74-.92-.74s-.15,1.57-.9,1.86S324.64,239,322.45,238Z" transform="translate(-142.52 -179.7)"/><path class="cls-10" d="M321.9,244.87c0-.25-.53.39-.63,0s.59-3.18.32-3.14-5,.84-5,.84-.15,3.22,1.31,3.77a4.9,4.9,0,0,1,2.26,1.44c.15.24-1.68,1.8-1.88,2.39a17.6,17.6,0,0,1-.79,1.72,3.14,3.14,0,0,0,1.52.16c0-.2.05-.38.09-.53.17-.68,1.22-1.55,1.68-2.22.89-1.29,1.61-1.6,1.65-2.47A5.41,5.41,0,0,0,321.9,244.87Z" transform="translate(-142.52 -179.7)"/><path class="cls-11" d="M317.5,251.94a4.4,4.4,0,0,0-.37,1.16s1.09.24,1.53-.26a1.45,1.45,0,0,0,.36-.74A3.14,3.14,0,0,1,317.5,251.94Z" transform="translate(-142.52 -179.7)"/><path class="cls-12" d="M324.24,239.29c-2.27-2.11-3.35-1.74-4.61-1.31-.71.24-2,2.92-2.39,3.12s-2.71-.13-3.1,0c-1-.78-3.39-4.05-6-2.51a3.08,3.08,0,0,0-.86,1.41,9.06,9.06,0,0,1-1.67,2.49c-.53.41-.74,1.37-.15,1.67a1.14,1.14,0,0,0,.6.1c.29.41.79-.06.93-.56s1.54-.6,2.18-.85a3.77,3.77,0,0,1,.36,1.12,27.15,27.15,0,0,0,.43,3.93,3.7,3.7,0,0,0,2.61,2.14c1.27.38,2.31,0,3.9-.7,1.24-.54,4.66-4.17,5.12-4.64s2.28,1.06,2.71.43C325.22,243.79,326.32,241.22,324.24,239.29Z" transform="translate(-142.52 -179.7)"/><path class="cls-13" d="M308.13,239.39c-.09-.24-.34-.41-.62.09s-1.2,2.1-1.45,2.52a6.58,6.58,0,0,0-.54.63c-.11.16.21.12.4,0a6.46,6.46,0,0,0,1.2-1.67C307.52,240.26,308.29,239.85,308.13,239.39Z" transform="translate(-142.52 -179.7)"/><path class="cls-10" d="M308.15,241.22a1,1,0,0,1,.28-.86c.4-.34.59-.47.59-.47a.67.67,0,0,1,0,.83A1.18,1.18,0,0,1,308.15,241.22Z" transform="translate(-142.52 -179.7)"/><path class="cls-10" d="M310.53,245.32c0-.79-.06-1.58-.14-2.37s-.18-2.1-.54-2.41-.2,1-.37,1.55-1.43,1.07-1.43,1.07a4.22,4.22,0,0,0,1.16-.17,14.89,14.89,0,0,1,.32,1.75,11,11,0,0,0,.33,3.25,3.72,3.72,0,0,0,2.72,2.06,4,4,0,0,0-.81-2.23A5.32,5.32,0,0,1,310.53,245.32Z" transform="translate(-142.52 -179.7)"/><path class="cls-11" d="M307.56,239.39a1.69,1.69,0,0,1,1.41.67,3.25,3.25,0,0,1,.58,1.67,7.2,7.2,0,0,1-.34,1.26l0,.18a2.08,2.08,0,0,0,.51-1.54,4.73,4.73,0,0,0-.8-2.07,1.94,1.94,0,0,0-1.24-.45Z" transform="translate(-142.52 -179.7)"/><path class="cls-11" d="M305.62,242.51a1.1,1.1,0,0,1,.9.24,3.42,3.42,0,0,1,.5.92l.11-.17a2.48,2.48,0,0,0-.53-1,1.13,1.13,0,0,0-.84-.17Z" transform="translate(-142.52 -179.7)"/><path class="cls-12" d="M306.93,237.27a1.85,1.85,0,0,1,.9.32,9,9,0,0,1,1.1,1.1l-.16.16S307.1,237.71,306.93,237.27Z" transform="translate(-142.52 -179.7)"/><path class="cls-10" d="M308.44,239a1.37,1.37,0,0,1-1.09-.84l-.42-.84a3.11,3.11,0,0,1,1,.67,11,11,0,0,0,.8.91Z" transform="translate(-142.52 -179.7)"/><path class="cls-9" d="M315.06,242.85a9.65,9.65,0,0,0-.37-1.77c0-.21-.24-.25-.47-.44a3.07,3.07,0,0,1-.79.08c-.6,0-1.67-1.33-2-1.77a1.18,1.18,0,0,0-1.1-.65c-.4.08-.76-.53-1.44,0a1.72,1.72,0,0,1-2,.25,1.14,1.14,0,0,1-.32-.16,1.2,1.2,0,0,0,1.07.72c1.54,0,1.94-.62,2.68-.09a6.56,6.56,0,0,1,1.25,1.49,9.35,9.35,0,0,1,.52,2.54,2,2,0,0,0,.75,1.15s-.1-1.59-.27-2.86a3,3,0,0,1,.61,2.21c-.05,1.6.67,2.06.67,2.06A6.27,6.27,0,0,1,314,244a7,7,0,0,0-.13-2,4.83,4.83,0,0,1,.57,1.54c0,.2-.07,1.28-.07,1.28S315.14,244.46,315.06,242.85Z" transform="translate(-142.52 -179.7)"/><path class="cls-14" d="M308.93,238.3c.68-.53,1,.08,1.44,0a1.18,1.18,0,0,1,1.1.65c.29.44,1.36,1.73,2,1.77a3.07,3.07,0,0,0,.79-.08,1.44,1.44,0,0,1-.24-.25c-.33-.43-.89-.61-1.32-1s-1-.8-1.14-1.18-.75-.27-1.25-.23-.88-.68-1.61-.33-.59.61-1,.88a.78.78,0,0,1-.71,0A1.72,1.72,0,0,0,308.93,238.3Z" transform="translate(-142.52 -179.7)"/><path class="cls-12" d="M326.11,247.28c-.18-.41-1.72-1.56-1.37-2.77.2-.73.63-1.1.69-1.5.12-1,0-2-.12-1.95s-4.06,2-4.06,2-.82,2.43.52,3.68c1.13,1.06,2.47.22,2.67,1.35a8,8,0,0,1-1,2.49,5.75,5.75,0,0,0-.6,1.83,3.24,3.24,0,0,0,1.6-.34,1.42,1.42,0,0,1,0-.64,8.45,8.45,0,0,1,1.34-2.52A1.17,1.17,0,0,0,326.11,247.28Z" transform="translate(-142.52 -179.7)"/><path class="cls-11" d="M322.72,253.47a1.31,1.31,0,0,0,1-.08,2,2,0,0,0,.85-.73,1.91,1.91,0,0,1-.21-.59,3.24,3.24,0,0,1-1.6.34A5.69,5.69,0,0,0,322.72,253.47Z" transform="translate(-142.52 -179.7)"/><path class="cls-11" d="M306.9,243.17a8.16,8.16,0,0,0,1.45-.54,5.45,5.45,0,0,0,1.25-1.29v.29a2.84,2.84,0,0,1-1.11,1.22,5.91,5.91,0,0,1-1.49.46Z" transform="translate(-142.52 -179.7)"/><path class="cls-9" d="M317.86,242.66a6.09,6.09,0,0,1,1,2.51,10.89,10.89,0,0,1,.1,2.46l1.07-1.27a9.11,9.11,0,0,0-.16-2.82,4.93,4.93,0,0,0-.43-1.27Z" transform="translate(-142.52 -179.7)"/><path class="cls-8" d="M317.25,243.17c.71.34,2.74.09,3-1.17a3,3,0,0,0-1-2.89,2.83,2.83,0,0,0-2.47-.9Z" transform="translate(-142.52 -179.7)"/><path class="cls-8" d="M314.9,240.43a9.32,9.32,0,0,0,1.17,2.32,1.65,1.65,0,0,0,.56.32,18.44,18.44,0,0,0,.31-2.82A5.09,5.09,0,0,0,314.9,240.43Z" transform="translate(-142.52 -179.7)"/><path class="cls-15" d="M318.48,248a4.25,4.25,0,0,1-.19,1.23c-.19.6-.4,1.21-.18,1.42s1,0,1.16-.63a1.86,1.86,0,0,1,.56-1,.75.75,0,0,0,.05-.94l-.61-.67Z" transform="translate(-142.52 -179.7)"/><path class="cls-2" d="M317.47,244.87a8.66,8.66,0,0,0,.35-1.76c.08-.91,0-2.71,0-2.71a2.43,2.43,0,0,1,.69-.18,5.6,5.6,0,0,0-.19-.6,13.22,13.22,0,0,0-3-1c-.15,0-1.42,1.06-1.27,1.92.27.28.45.26.61.57,0,0,1.27-.74,1.49-.49,0,.67.17,2.28.19,2.89a8.43,8.43,0,0,0,.26,2.1,13.62,13.62,0,0,0,1,1.5c.2.32.78,1.42.78,1.42a2.12,2.12,0,0,0,.82.05c-.14-.53-.44-1.57-.67-2.19A4,4,0,0,0,317.47,244.87Z" transform="translate(-142.52 -179.7)"/><path class="cls-16" d="M319.63,247.75l-1.34-2.93s.33-2.5.46-2.89a5.06,5.06,0,0,0-.24-1.71,2.43,2.43,0,0,0-.69.18s.08,1.8,0,2.71a8.66,8.66,0,0,1-.35,1.76,4,4,0,0,1,1.13,1.49c.23.62.53,1.66.67,2.19a.38.38,0,0,0,.17-.08A.93.93,0,0,0,319.63,247.75Z" transform="translate(-142.52 -179.7)"/><path class="cls-17" d="M313.33,234.25,312,235s-.51-1.45-.87-2.2a9.46,9.46,0,0,1-.41-1.49c-.05-.46-.17-.37-.25-.14s.06.62-.14.62-.19-.27-.57-.5-.88-.42-1,0a1.18,1.18,0,0,0,.64,1,8.29,8.29,0,0,0,.87.5c.13.53.36,1.58.49,2.17a1.93,1.93,0,0,0,.7,1.31,3.69,3.69,0,0,0,1.11-.15,12.89,12.89,0,0,1,1.72-.22Z" transform="translate(-142.52 -179.7)"/><path class="cls-2" d="M311.9,235.67c0,.07,0,.15-.08.23a2.51,2.51,0,0,0,1.6-.27,1.08,1.08,0,0,1,.58-.1,3.38,3.38,0,0,0-.9-1.16,8.47,8.47,0,0,0-1.2.42A2.69,2.69,0,0,1,311.9,235.67Z" transform="translate(-142.52 -179.7)"/><path class="cls-2" d="M311.56,235.76a1.72,1.72,0,0,0,.34-1s-.1-.36-.26-.83-.58-1.35-.58-1.35l-.61.23c.07.34.18.89.29,1.25A13,13,0,0,0,311.56,235.76Z" transform="translate(-142.52 -179.7)"/><path class="cls-16" d="M313.42,235.63a2.51,2.51,0,0,1-1.6.27c-.09.25-.18.47-.18.47a5.58,5.58,0,0,0,2.23-.4.36.36,0,0,0,.13-.44A1.08,1.08,0,0,0,313.42,235.63Z" transform="translate(-142.52 -179.7)"/><path class="cls-16" d="M310.47,234.17A8.5,8.5,0,0,0,311,236a.65.65,0,0,0,.56-.21,13,13,0,0,1-.82-1.67c-.11-.36-.22-.91-.29-1.25l-.15.06S310.35,233.48,310.47,234.17Z" transform="translate(-142.52 -179.7)"/><path class="cls-18" d="M314.89,233.72c-.39-.49-1-.08-1.47.2l-.84.55.63.17a2.62,2.62,0,0,0-.35.42c.12.1.34.11.56.22a1.19,1.19,0,0,0-.12,1C314.17,236.33,314.89,233.72,314.89,233.72Z" transform="translate(-142.52 -179.7)"/><path class="cls-15" d="M314.81,233.64s-.22,1,.33,1,1.27-.81,1.27-.81a1.65,1.65,0,0,1,.8.33c.26.26.81,1,.81,1l.27,1.27a1.64,1.64,0,0,1-.89.11c-.36-.1,0,.5,0,.5a1.15,1.15,0,0,0-.28.81c.06.46.26.94-.1,1.08a9.93,9.93,0,0,1-2.33-.2c-.41-.05-.74-1.21-.86-1.6a4.68,4.68,0,0,1-.17-1.76C313.71,234.47,314.17,233.5,314.81,233.64Z" transform="translate(-142.52 -179.7)"/><path class="cls-15" d="M314.46,238.17a2.56,2.56,0,0,1-.5.9,4.34,4.34,0,0,0-.54.85,4.23,4.23,0,0,1,1,.88,4,4,0,0,0,.45-.59,5.15,5.15,0,0,0,.75,1.25,2.35,2.35,0,0,0,1.65.36c2.05,0,2.28-1.08,2.28-1.08a9.71,9.71,0,0,0-1.45-1.72,3.13,3.13,0,0,0-1.14-.55Z" transform="translate(-142.52 -179.7)"/><path class="cls-18" d="M316.88,236.61a1.2,1.2,0,0,0,.49.39l.73-.34.56-.53s-.83-2-1.45-2c-.26,0-.48.43-.54.9A2.85,2.85,0,0,0,316.88,236.61Z" transform="translate(-142.52 -179.7)"/><path class="cls-19" d="M315.14,233.28,315,234a1,1,0,0,0,.12.43,3.53,3.53,0,0,0,.7-.28,1.8,1.8,0,0,0,.51-.4l-.21-1.17Z" transform="translate(-142.52 -179.7)"/><path class="cls-17" d="M316.25,231.26a1,1,0,0,0-1.63.12c-.56.82,0,2.18.46,2.1a2,2,0,0,0,1.16-.74A1.49,1.49,0,0,0,316.25,231.26Z" transform="translate(-142.52 -179.7)"/><path class="cls-20" d="M317,233.28c-.17-.61.14-1.55-.47-2.25a1.59,1.59,0,0,0-1.06-.42,1.17,1.17,0,0,0-1,.49c-.43.51-.37.81-.09,1.11a.88.88,0,0,1,.19-.36h0a.89.89,0,0,0,.19.2,2,2,0,0,0,.4.18c.33.12.39.32.53.6s.17.68.4.8S317.13,233.78,317,233.28Z" transform="translate(-142.52 -179.7)"/><path class="cls-12" d="M312.25,245.86s.31,2.89.33,3.77-.22,2-.17,2.73.15,1.25.17,1.5a11.58,11.58,0,0,1-.26,3.65c-.18.42-.65.71-.79,1.42a3.52,3.52,0,0,0,1.74,0c0-.3,0-.57.2-.65.46-.19.37-1.14.35-1.93a8.28,8.28,0,0,1,.4-2.36,9.62,9.62,0,0,0,.42-2.7,10.83,10.83,0,0,1,.77-3.32C315.5,247.74,313.56,244.7,312.25,245.86Z" transform="translate(-142.52 -179.7)"/><path class="cls-11" d="M311.53,258.93h0a6.28,6.28,0,0,0-.12,1.15s1.25.09,1.65-.31a1.2,1.2,0,0,0,.21-.85A3.52,3.52,0,0,1,311.53,258.93Z" transform="translate(-142.52 -179.7)"/><path class="cls-10" d="M310.46,253.7a1.42,1.42,0,0,0-.49.28,9.89,9.89,0,0,0-.43-2.1c.49-.71,1.51-1.6,2.07-2.26.24-.29-1.35-2.34-1.35-2.34s-1.11,2.16-1.38,2.5a2.87,2.87,0,0,0-.78,1.23,3.81,3.81,0,0,0,.16,1.54,9.27,9.27,0,0,0,.88,2.53c.27.28.58.25,1.17.43a1.21,1.21,0,0,0,.31.06,3.88,3.88,0,0,0,.13-1.09A1.31,1.31,0,0,0,310.46,253.7Z" transform="translate(-142.52 -179.7)"/><path class="cls-11" d="M311.48,255.45a1.74,1.74,0,0,0-.43-1.77,5.16,5.16,0,0,0-.59,0,1.31,1.31,0,0,1,.29.78,3.88,3.88,0,0,1-.13,1.09A1.88,1.88,0,0,0,311.48,255.45Z" transform="translate(-142.52 -179.7)"/><path class="cls-11" d="M316.34,243c-.14-.21-.18-.42-.23-.46s0,.16,0,.25c-.36,2.51-2.74,4.27-4.25,4.21a3,3,0,0,1-2.26-1.13c-.15,2.15.49,3.37,1.41,3.79a13.52,13.52,0,0,0,1.61.43s-1.48-.62-1.73-1.75A5.61,5.61,0,0,0,316.34,243Z" transform="translate(-142.52 -179.7)"/><path class="cls-12" d="M309.64,237a2.71,2.71,0,0,1,.33.95,3,3,0,0,1-.21,1.32h-.25A7.5,7.5,0,0,1,309.64,237Z" transform="translate(-142.52 -179.7)"/><path class="cls-10" d="M309.21,239.13s-.42-.44,0-1.28l.43-.83a2.32,2.32,0,0,1,.12,1.13c-.13.44-.25,1.14-.25,1.14Z" transform="translate(-142.52 -179.7)"/><path class="cls-11" d="M313.42,239.92s0-.8.75-.53c1.18.44,1.24,1.06,1.48,1.75.15.44.69,1.82.69,1.82a2.05,2.05,0,0,1-1.5-1.32A7.65,7.65,0,0,0,313.42,239.92Z" transform="translate(-142.52 -179.7)"/><path class="cls-18" d="M317.33,244.12a2.31,2.31,0,0,0-1-.2,1,1,0,0,0-.1.2,2,2,0,0,1,.8.14c.38.19.73.37.6.74a1,1,0,0,1-1.17.61.82.82,0,0,0,.28.22s.85,0,1.09-.65S318,244.36,317.33,244.12Z" transform="translate(-142.52 -179.7)"/><path class="cls-15" d="M317.65,245c.13-.37-.22-.55-.6-.74a2,2,0,0,0-.8-.14,1.46,1.46,0,0,0,.23,1.49A1,1,0,0,0,317.65,245Z" transform="translate(-142.52 -179.7)"/><path class="cls-2" d="M314.07,237.9s.05.12.15.32a1.87,1.87,0,0,0,1.19,0,9.62,9.62,0,0,0,1.26-.54l0-.27a10.33,10.33,0,0,1-1.36.5A3,3,0,0,1,314.07,237.9Z" transform="translate(-142.52 -179.7)"/><path class="cls-2" d="M314.35,238.43a1,1,0,0,0,.72.52,8.18,8.18,0,0,0,1.9-.28A8.16,8.16,0,0,1,314.35,238.43Z" transform="translate(-142.52 -179.7)"/><path class="cls-11" d="M306.93,243.44s3.67,3,5.87,2.17,2.79-4.64,2.79-4.64l-.1-.29s-1.27,4-2.49,4.6c-2.21,1-5.95-2-5.95-2Z" transform="translate(-142.52 -179.7)"/><path class="cls-21" d="M315.68,236.66l.24.17a3,3,0,0,0,2.37-.17c1.93-1,2-2,2-2l-.23-.06a5.43,5.43,0,0,1-1.63,1.47A6,6,0,0,1,315.68,236.66Z" transform="translate(-142.52 -179.7)"/><path class="cls-22" d="M315.68,236.66s.13,2.12.3,3.4a3,3,0,0,0,1.46,2.41,4.26,4.26,0,0,0,1.5.67l-3-6.31Z" transform="translate(-142.52 -179.7)"/><path class="cls-23" d="M319,238.92a20.82,20.82,0,0,0-.38-2.61,6.59,6.59,0,0,1-2.67.52s.05,1.14.22,2.45A4.09,4.09,0,0,0,319,238.92Z" transform="translate(-142.52 -179.7)"/><path class="cls-23" d="M316.21,239.81c0,.26.08.51.13.76.23,1.25,1.9,2.21,2.43,2.49a26.47,26.47,0,0,0,.25-3.34,2.17,2.17,0,0,1,0-.26l0,0A3.68,3.68,0,0,1,316.21,239.81Z" transform="translate(-142.52 -179.7)"/><path class="cls-23" d="M320.38,237.67c0-1.46-.11-3-.11-3a3,3,0,0,1-1.16,1.27c.08.56.19,1.47.27,2.64A8.46,8.46,0,0,0,320.38,237.67Z" transform="translate(-142.52 -179.7)"/><path class="cls-23" d="M319.42,239.18c0,.13,0,.26,0,.4a21.39,21.39,0,0,1-.05,2.81,8.56,8.56,0,0,0,1-3.46c0-.2,0-.41,0-.62A6.34,6.34,0,0,1,319.42,239.18Z" transform="translate(-142.52 -179.7)"/><path class="cls-7" d="M320.38,237.67a8.46,8.46,0,0,1-1,.94c0,.19,0,.38,0,.57a6.34,6.34,0,0,0,.95-.87C320.38,238.1,320.38,237.88,320.38,237.67Z" transform="translate(-142.52 -179.7)"/><path class="cls-7" d="M316.14,239.28c0,.18.05.35.07.53a3.68,3.68,0,0,0,2.76-.33l0,0c0-.18,0-.36,0-.54A4.09,4.09,0,0,1,316.14,239.28Z" transform="translate(-142.52 -179.7)"/><path class="cls-7" d="M319.44,239.58c-.08-1.63-.23-2.91-.33-3.61l-.32.23-.2.11a21,21,0,0,1,.43,3.41,26.47,26.47,0,0,1-.25,3.34.79.79,0,0,0,.17.08,6.16,6.16,0,0,0,.45-.75A21.39,21.39,0,0,0,319.44,239.58Z" transform="translate(-142.52 -179.7)"/><path class="cls-8" d="M320.15,241.53a7.61,7.61,0,0,0,2.65.74,5,5,0,0,0,2.66-.74,1.64,1.64,0,0,0-.26-.85,4,4,0,0,1-2.39.95,5.66,5.66,0,0,1-2.5-.63Z" transform="translate(-142.52 -179.7)"/><path class="cls-2" d="M314.81,233.64l.27,0s-.1.32.33.32a2.61,2.61,0,0,0,.94-.22l.32.17s-.81,1.16-1.65.92S314.81,233.64,314.81,233.64Z" transform="translate(-142.52 -179.7)"/><path class="cls-18" d="M312.18,235.25c-.06-.42-.28-.46-.28-.46s.05.15-.26.58a2.18,2.18,0,0,1-.64.6.64.64,0,0,0,.07.12,1.75,1.75,0,0,0,.62-.49,2.07,2.07,0,0,0,.32-.52,1.84,1.84,0,0,1,.05.76,1.33,1.33,0,0,1-.18.6.63.63,0,0,0,.17-.07A2.08,2.08,0,0,0,312.18,235.25Z" transform="translate(-142.52 -179.7)"/><path class="cls-15" d="M312,235.08a2.07,2.07,0,0,1-.32.52,1.75,1.75,0,0,1-.62.49.89.89,0,0,0,.46.36,1,1,0,0,0,.35,0,1.33,1.33,0,0,0,.18-.6A1.84,1.84,0,0,0,312,235.08Z" transform="translate(-142.52 -179.7)"/><path class="cls-18" d="M314.07,234.41s-.45,1.11.15,1.72,1.37,0,1.37,0-1,.13-1.29-.55A2.59,2.59,0,0,1,314.07,234.41Z" transform="translate(-142.52 -179.7)"/><path class="cls-18" d="M314.62,235.4s.22.41,1.06.21c.59-.13.76-.91.76-.91s-.52.58-.85.65A6.9,6.9,0,0,1,314.62,235.4Z" transform="translate(-142.52 -179.7)"/><path class="cls-2" d="M314.47,231.1l-.11.14a3.3,3.3,0,0,0,1.17.6,3.89,3.89,0,0,0,1.36,0l0-.13a2.59,2.59,0,0,1-1.28-.07A5.16,5.16,0,0,1,314.47,231.1Z" transform="translate(-142.52 -179.7)"/><polygon class="cls-24" points="3.57 64.8 3.57 62.57 127.96 134.35 127.96 136.58 3.57 64.8"/><polygon class="cls-25" points="213.9 86.96 213.9 84.73 127.96 134.35 127.96 136.58 213.9 86.96"/><path class="cls-4" d="M293.41,243.39c0-1.29,1.93-2.34,4.36-2.34s4.41,1,4.41,2.34-2,2.33-4.41,2.33S293.41,244.67,293.41,243.39Z" transform="translate(-142.52 -179.7)"/><path class="cls-4" d="M248.93,217.87c0-1.29,1.93-2.33,4.35-2.33s4.42,1,4.42,2.33-2,2.34-4.42,2.34S248.93,219.16,248.93,217.87Z" transform="translate(-142.52 -179.7)"/><path class="cls-4" d="M237.56,209.69c0-1.29,1.94-2.34,4.36-2.34s4.41,1.05,4.41,2.34-2,2.33-4.41,2.33S237.56,211,237.56,209.69Z" transform="translate(-142.52 -179.7)"/><path class="cls-4" d="M212.2,229.32c0-1.29,1.93-2.33,4.35-2.33s4.42,1,4.42,2.33-2,2.34-4.42,2.34S212.2,230.61,212.2,229.32Z" transform="translate(-142.52 -179.7)"/><path class="cls-4" d="M205.18,215.27c0-1.29,1.93-2.34,4.36-2.34s4.41,1,4.41,2.34-2,2.33-4.41,2.33S205.18,216.56,205.18,215.27Z" transform="translate(-142.52 -179.7)"/><path class="cls-4" d="M167,244.26c0-1.29,1.93-2.34,4.36-2.34s4.41,1.05,4.41,2.34-2,2.33-4.41,2.33S167,245.55,167,244.26Z" transform="translate(-142.52 -179.7)"/><path class="cls-4" d="M321.85,274.05c0-1.29,1.93-2.34,4.35-2.34s4.42,1.05,4.42,2.34-2,2.33-4.42,2.33S321.85,275.34,321.85,274.05Z" transform="translate(-142.52 -179.7)"/><path class="cls-4" d="M334.84,265.92c0-1.28,1.94-2.33,4.36-2.33s4.42,1.05,4.42,2.33-2,2.34-4.42,2.34S334.84,267.21,334.84,265.92Z" transform="translate(-142.52 -179.7)"/><polygon class="cls-6" points="99.38 23.5 98.61 23.05 98.61 29.44 99.38 29.89 99.38 23.5"/><polygon class="cls-26" points="99.38 0.06 96.02 4.36 99.38 6.3 99.38 0.06"/><polygon class="cls-26" points="99.38 4.69 95.69 9.41 99.38 11.54 99.38 4.69"/><polygon class="cls-26" points="99.38 8.88 94.71 14.87 99.38 17.57 99.38 8.88"/><polygon class="cls-26" points="99.38 14.7 94.14 21.42 99.38 24.45 99.38 14.7"/><polygon class="cls-27" points="100.25 29.44 98.61 30.39 98.61 24 100.25 23.05 100.25 29.44"/><polygon class="cls-4" points="99.43 0 96.02 8.29 99.43 6.33 102.83 4.36 99.43 0"/><polygon class="cls-4" points="99.43 4.63 95.69 13.73 99.43 11.57 103.16 9.41 99.43 4.63"/><polygon class="cls-4" points="99.43 8.82 94.71 20.32 99.43 17.59 104.15 14.87 99.43 8.82"/><polygon class="cls-4" points="99.43 14.64 94.14 27.53 99.43 24.47 104.72 21.42 99.43 14.64"/><polygon class="cls-6" points="99.43 23.5 99.43 29.89 100.29 30.39 100.29 24 99.43 23.5"/><polygon class="cls-26" points="99.47 0 99.43 0.06 99.43 6.3 99.47 6.33 102.88 8.29 99.47 0"/><polygon class="cls-26" points="99.47 4.63 99.43 4.69 99.43 11.54 99.47 11.57 103.21 13.73 99.47 4.63"/><polygon class="cls-26" points="99.47 8.82 99.43 8.88 99.43 17.57 99.47 17.59 104.19 20.32 99.47 8.82"/><polygon class="cls-26" points="99.47 14.64 99.43 14.7 99.43 24.45 99.47 24.47 104.77 27.53 99.47 14.64"/><polygon class="cls-6" points="155.21 57.42 154.43 56.97 154.43 63.37 155.21 63.82 155.21 57.42"/><polygon class="cls-26" points="155.21 33.98 151.85 38.29 155.21 40.23 155.21 33.98"/><polygon class="cls-26" points="155.21 38.62 151.52 43.34 155.21 45.47 155.21 38.62"/><polygon class="cls-26" points="155.21 42.8 150.53 48.79 155.21 51.49 155.21 42.8"/><polygon class="cls-26" points="155.21 48.63 149.96 55.34 155.21 58.37 155.21 48.63"/><polygon class="cls-27" points="156.07 63.37 154.43 64.32 154.43 57.92 156.07 56.97 156.07 63.37"/><polygon class="cls-4" points="155.25 33.93 151.85 42.22 155.25 40.25 158.66 38.29 155.25 33.93"/><polygon class="cls-4" points="155.25 38.56 151.52 47.65 155.25 45.5 158.99 43.34 155.25 38.56"/><polygon class="cls-4" points="155.25 42.75 150.53 54.24 155.25 51.52 159.97 48.79 155.25 42.75"/><polygon class="cls-4" points="155.25 48.57 149.96 61.45 155.25 58.4 160.54 55.34 155.25 48.57"/><polygon class="cls-6" points="155.25 57.42 155.25 63.82 156.12 64.32 156.12 57.92 155.25 57.42"/><polygon class="cls-26" points="155.3 33.93 155.25 33.98 155.25 40.23 155.3 40.25 158.7 42.22 155.3 33.93"/><polygon class="cls-26" points="155.3 38.56 155.25 38.62 155.25 45.47 155.3 45.5 159.03 47.65 155.3 38.56"/><polygon class="cls-26" points="155.3 42.75 155.25 42.8 155.25 51.49 155.3 51.52 160.02 54.24 155.3 42.75"/><polygon class="cls-26" points="155.3 48.57 155.25 48.63 155.25 58.37 155.3 58.4 160.59 61.45 155.3 48.57"/><polygon class="cls-6" points="110.75 31.78 109.97 31.33 109.97 37.73 110.75 38.18 110.75 31.78"/><polygon class="cls-26" points="110.75 8.34 107.39 12.65 110.75 14.59 110.75 8.34"/><polygon class="cls-26" points="110.75 12.97 107.06 17.7 110.75 19.83 110.75 12.97"/><polygon class="cls-26" points="110.75 17.16 106.07 23.15 110.75 25.85 110.75 17.16"/><polygon class="cls-26" points="110.75 22.98 105.5 29.7 110.75 32.73 110.75 22.98"/><polygon class="cls-27" points="111.61 37.73 109.97 38.68 109.97 32.28 111.61 31.33 111.61 37.73"/><polygon class="cls-4" points="110.79 8.29 107.39 16.58 110.79 14.61 114.2 12.65 110.79 8.29"/><polygon class="cls-4" points="110.79 12.92 107.06 22.01 110.79 19.86 114.53 17.7 110.79 12.92"/><polygon class="cls-4" points="110.79 17.11 106.07 28.6 110.79 25.88 115.52 23.15 110.79 17.11"/><polygon class="cls-4" points="110.79 22.93 105.5 35.81 110.79 32.76 116.08 29.7 110.79 22.93"/><polygon class="cls-6" points="110.79 31.78 110.79 38.18 111.66 38.68 111.66 32.28 110.79 31.78"/><polygon class="cls-26" points="110.84 8.29 110.79 8.34 110.79 14.59 110.84 14.61 114.25 16.58 110.84 8.29"/><polygon class="cls-26" points="110.84 12.92 110.79 12.97 110.79 19.83 110.84 19.86 114.57 22.01 110.84 12.92"/><polygon class="cls-26" points="110.84 17.11 110.79 17.16 110.79 25.85 110.84 25.88 115.56 28.6 110.84 17.11"/><polygon class="cls-26" points="110.84 22.93 110.79 22.98 110.79 32.73 110.84 32.76 116.13 35.81 110.84 22.93"/><polygon class="cls-6" points="183.71 88.06 182.94 87.61 182.94 94 183.71 94.45 183.71 88.06"/><polygon class="cls-26" points="183.71 64.62 180.35 68.92 183.71 70.86 183.71 64.62"/><polygon class="cls-26" points="183.71 69.25 180.02 73.98 183.71 76.11 183.71 69.25"/><polygon class="cls-26" points="183.71 73.44 179.04 79.43 183.71 82.13 183.71 73.44"/><polygon class="cls-26" points="183.71 79.26 178.47 85.98 183.71 89.01 183.71 79.26"/><polygon class="cls-27" points="184.58 94 182.94 94.95 182.94 88.56 184.58 87.61 184.58 94"/><polygon class="cls-4" points="183.76 64.56 180.35 72.86 183.76 70.89 187.16 68.92 183.76 64.56"/><polygon class="cls-4" points="183.76 69.19 180.02 78.29 183.76 76.13 187.49 73.98 183.76 69.19"/><polygon class="cls-4" points="183.76 73.38 179.04 84.88 183.76 82.15 188.48 79.43 183.76 73.38"/><polygon class="cls-4" points="183.76 79.2 178.47 92.09 183.76 89.03 189.05 85.98 183.76 79.2"/><polygon class="cls-6" points="183.76 88.06 183.76 94.45 184.62 94.95 184.62 88.56 183.76 88.06"/><polygon class="cls-26" points="183.81 64.56 183.76 64.62 183.76 70.86 183.81 70.89 187.21 72.86 183.81 64.56"/><polygon class="cls-26" points="183.81 69.19 183.76 69.25 183.76 76.11 183.81 76.13 187.54 78.29 183.81 69.19"/><polygon class="cls-26" points="183.81 73.38 183.76 73.44 183.76 82.13 183.81 82.15 188.53 84.88 183.81 73.38"/><polygon class="cls-26" points="183.81 79.2 183.76 79.26 183.76 89.01 183.81 89.03 189.1 92.09 183.81 79.2"/><path class="cls-4" d="M282.93,293.15c0-1.29,1.94-2.34,4.36-2.34s4.41,1.05,4.41,2.34-2,2.33-4.41,2.33S282.93,294.44,282.93,293.15Z" transform="translate(-142.52 -179.7)"/><polygon class="cls-6" points="144.8 107.16 144.02 106.71 144.02 113.11 144.8 113.55 144.8 107.16"/><polygon class="cls-26" points="144.8 83.72 141.44 88.02 144.8 89.96 144.8 83.72"/><polygon class="cls-26" points="144.8 88.35 141.11 93.08 144.8 95.21 144.8 88.35"/><polygon class="cls-26" points="144.8 92.54 140.12 98.53 144.8 101.23 144.8 92.54"/><polygon class="cls-26" points="144.8 98.36 139.55 105.08 144.8 108.11 144.8 98.36"/><polygon class="cls-27" points="145.66 113.11 144.02 114.05 144.02 107.66 145.66 106.71 145.66 113.11"/><polygon class="cls-4" points="144.84 83.66 141.44 91.95 144.84 89.99 148.25 88.02 144.84 83.66"/><polygon class="cls-4" points="144.84 88.29 141.11 97.39 144.84 95.23 148.58 93.08 144.84 88.29"/><polygon class="cls-4" points="144.84 92.48 140.12 103.98 144.84 101.25 149.56 98.53 144.84 92.48"/><polygon class="cls-4" points="144.84 98.3 139.55 111.19 144.84 108.13 150.13 105.08 144.84 98.3"/><polygon class="cls-6" points="144.84 107.16 144.84 113.55 145.71 114.05 145.71 107.66 144.84 107.16"/><polygon class="cls-26" points="144.89 83.66 144.84 83.72 144.84 89.96 144.89 89.99 148.29 91.95 144.89 83.66"/><polygon class="cls-26" points="144.89 88.29 144.84 88.35 144.84 95.21 144.89 95.23 148.62 97.39 144.89 88.29"/><polygon class="cls-26" points="144.89 92.48 144.84 92.54 144.84 101.23 144.89 101.25 149.61 103.98 144.89 92.48"/><polygon class="cls-26" points="144.89 98.3 144.84 98.36 144.84 108.11 144.89 108.13 150.18 111.19 144.89 98.3"/><path class="cls-4" d="M256.13,259.5c0-1.29,1.94-2.34,4.36-2.34s4.41,1,4.41,2.34-2,2.33-4.41,2.33S256.13,260.78,256.13,259.5Z" transform="translate(-142.52 -179.7)"/><polygon class="cls-6" points="118 73.5 117.22 73.06 117.22 79.45 118 79.9 118 73.5"/><polygon class="cls-26" points="118 50.07 114.64 54.37 118 56.31 118 50.07"/><polygon class="cls-26" points="118 54.7 114.31 59.42 118 61.55 118 54.7"/><polygon class="cls-26" points="118 58.89 113.32 64.88 118 67.58 118 58.89"/><polygon class="cls-26" points="118 64.71 112.75 71.43 118 74.45 118 64.71"/><polygon class="cls-27" points="118.86 79.45 117.22 80.4 117.22 74 118.86 73.06 118.86 79.45"/><polygon class="cls-4" points="118.04 50.01 114.64 58.3 118.04 56.34 121.45 54.37 118.04 50.01"/><polygon class="cls-4" points="118.04 54.64 114.31 63.74 118.04 61.58 121.78 59.42 118.04 54.64"/><polygon class="cls-4" points="118.04 58.83 113.32 70.33 118.04 67.6 122.76 64.88 118.04 58.83"/><polygon class="cls-4" points="118.04 64.65 112.75 77.54 118.04 74.48 123.33 71.43 118.04 64.65"/><polygon class="cls-6" points="118.04 73.5 118.04 79.9 118.91 80.4 118.91 74 118.04 73.5"/><polygon class="cls-26" points="118.09 50.01 118.04 50.07 118.04 56.31 118.09 56.34 121.49 58.3 118.09 50.01"/><polygon class="cls-26" points="118.09 54.64 118.04 54.7 118.04 61.55 118.09 61.58 121.82 63.74 118.09 54.64"/><polygon class="cls-26" points="118.09 58.83 118.04 58.89 118.04 67.58 118.09 67.6 122.81 70.33 118.09 58.83"/><polygon class="cls-26" points="118.09 64.65 118.04 64.71 118.04 74.45 118.09 74.48 123.38 77.54 118.09 64.65"/><polygon class="cls-6" points="67.05 29.18 66.27 28.73 66.27 35.13 67.05 35.57 67.05 29.18"/><polygon class="cls-26" points="67.05 5.74 63.69 10.04 67.05 11.98 67.05 5.74"/><polygon class="cls-26" points="67.05 10.37 63.36 15.1 67.05 17.23 67.05 10.37"/><polygon class="cls-26" points="67.05 14.56 62.37 20.55 67.05 23.25 67.05 14.56"/><polygon class="cls-26" points="67.05 20.38 61.8 27.1 67.05 30.13 67.05 20.38"/><polygon class="cls-27" points="67.91 35.13 66.27 36.07 66.27 29.68 67.91 28.73 67.91 35.13"/><polygon class="cls-4" points="67.09 5.68 63.69 13.97 67.09 12.01 70.5 10.04 67.09 5.68"/><polygon class="cls-4" points="67.09 10.31 63.36 19.41 67.09 17.25 70.83 15.1 67.09 10.31"/><polygon class="cls-4" points="67.09 14.5 62.37 26 67.09 23.27 71.81 20.55 67.09 14.5"/><polygon class="cls-4" points="67.09 20.32 61.8 33.21 67.09 30.15 72.38 27.1 67.09 20.32"/><polygon class="cls-6" points="67.09 29.18 67.09 35.57 67.96 36.07 67.96 29.68 67.09 29.18"/><polygon class="cls-26" points="67.14 5.68 67.09 5.74 67.09 11.98 67.14 12.01 70.54 13.97 67.14 5.68"/><polygon class="cls-26" points="67.14 10.31 67.09 10.37 67.09 17.23 67.14 17.25 70.87 19.41 67.14 10.31"/><polygon class="cls-26" points="67.14 14.5 67.09 14.56 67.09 23.25 67.14 23.27 71.86 26 67.14 14.5"/><polygon class="cls-26" points="67.14 20.32 67.09 20.38 67.09 30.13 67.14 30.15 72.43 33.21 67.14 20.32"/><polygon class="cls-6" points="196.67 79.83 195.89 79.39 195.89 85.78 196.67 86.23 196.67 79.83"/><polygon class="cls-26" points="196.67 56.4 193.31 60.7 196.67 62.64 196.67 56.4"/><polygon class="cls-26" points="196.67 61.03 192.98 65.75 196.67 67.88 196.67 61.03"/><polygon class="cls-26" points="196.67 65.22 191.99 71.2 196.67 73.9 196.67 65.22"/><polygon class="cls-26" points="196.67 71.04 191.42 77.75 196.67 80.78 196.67 71.04"/><polygon class="cls-27" points="197.53 85.78 195.89 86.73 195.89 80.33 197.53 79.39 197.53 85.78"/><polygon class="cls-4" points="196.71 56.34 193.31 64.63 196.71 62.66 200.12 60.7 196.71 56.34"/><polygon class="cls-4" points="196.71 60.97 192.98 70.06 196.71 67.91 200.45 65.75 196.71 60.97"/><polygon class="cls-4" points="196.71 65.16 191.99 76.65 196.71 73.93 201.43 71.2 196.71 65.16"/><polygon class="cls-4" points="196.71 70.98 191.42 83.86 196.71 80.81 202 77.75 196.71 70.98"/><polygon class="cls-6" points="196.71 79.83 196.71 86.23 197.58 86.73 197.58 80.33 196.71 79.83"/><polygon class="cls-26" points="196.76 56.34 196.71 56.4 196.71 62.64 196.76 62.66 200.16 64.63 196.76 56.34"/><polygon class="cls-26" points="196.76 60.97 196.71 61.03 196.71 67.88 196.76 67.91 200.49 70.06 196.76 60.97"/><polygon class="cls-26" points="196.76 65.16 196.71 65.22 196.71 73.9 196.76 73.93 201.48 76.65 196.76 65.16"/><polygon class="cls-26" points="196.76 70.98 196.71 71.04 196.71 80.78 196.76 80.81 202.05 83.86 196.76 70.98"/><polygon class="cls-6" points="74.02 43.23 73.24 42.78 73.24 49.18 74.02 49.63 74.02 43.23"/><polygon class="cls-26" points="74.02 19.79 70.66 24.09 74.02 26.04 74.02 19.79"/><polygon class="cls-26" points="74.02 24.43 70.33 29.15 74.02 31.28 74.02 24.43"/><polygon class="cls-26" points="74.02 28.61 69.34 34.6 74.02 37.3 74.02 28.61"/><polygon class="cls-26" points="74.02 34.43 68.77 41.15 74.02 44.18 74.02 34.43"/><polygon class="cls-27" points="74.88 49.18 73.24 50.13 73.24 43.73 74.88 42.78 74.88 49.18"/><polygon class="cls-4" points="74.06 19.73 70.66 28.03 74.06 26.06 77.47 24.09 74.06 19.73"/><polygon class="cls-4" points="74.06 24.37 70.33 33.46 74.06 31.31 77.8 29.15 74.06 24.37"/><polygon class="cls-4" points="74.06 28.56 69.34 40.05 74.06 37.33 78.78 34.6 74.06 28.56"/><polygon class="cls-4" points="74.06 34.38 68.77 47.26 74.06 44.21 79.36 41.15 74.06 34.38"/><polygon class="cls-6" points="74.06 43.23 74.06 49.63 74.93 50.13 74.93 43.73 74.06 43.23"/><polygon class="cls-26" points="74.11 19.73 74.06 19.79 74.06 26.04 74.11 26.06 77.52 28.03 74.11 19.73"/><polygon class="cls-26" points="74.11 24.37 74.06 24.43 74.06 31.28 74.11 31.31 77.84 33.46 74.11 24.37"/><polygon class="cls-26" points="74.11 28.55 74.06 28.61 74.06 37.3 74.11 37.33 78.83 40.05 74.11 28.55"/><polygon class="cls-26" points="74.11 34.38 74.06 34.43 74.06 44.18 74.11 44.21 79.4 47.26 74.11 34.38"/><polygon class="cls-6" points="28.79 57.92 28.02 57.47 28.02 63.87 28.79 64.31 28.79 57.92"/><polygon class="cls-26" points="28.79 34.48 25.43 38.78 28.79 40.72 28.79 34.48"/><polygon class="cls-26" points="28.79 39.11 25.1 43.84 28.79 45.97 28.79 39.11"/><polygon class="cls-26" points="28.79 43.3 24.11 49.29 28.79 51.99 28.79 43.3"/><polygon class="cls-26" points="28.79 49.12 23.54 55.84 28.79 58.87 28.79 49.12"/><polygon class="cls-27" points="29.66 63.87 28.02 64.81 28.02 58.42 29.66 57.47 29.66 63.87"/><polygon class="cls-4" points="28.84 34.42 25.43 42.72 28.84 40.75 32.24 38.78 28.84 34.42"/><polygon class="cls-4" points="28.84 39.05 25.1 48.15 28.84 45.99 32.57 43.84 28.84 39.05"/><polygon class="cls-4" points="28.84 43.24 24.11 54.74 28.84 52.01 33.56 49.29 28.84 43.24"/><polygon class="cls-4" points="28.84 49.06 23.54 61.95 28.84 58.89 34.13 55.84 28.84 49.06"/><polygon class="cls-6" points="28.84 57.92 28.84 64.31 29.7 64.81 29.7 58.42 28.84 57.92"/><polygon class="cls-26" points="28.88 34.42 28.84 34.48 28.84 40.72 28.88 40.75 32.29 42.72 28.88 34.42"/><polygon class="cls-26" points="28.88 39.05 28.84 39.11 28.84 45.97 28.88 45.99 32.62 48.15 28.88 39.05"/><polygon class="cls-26" points="28.88 43.24 28.84 43.3 28.84 51.99 28.88 52.01 33.6 54.74 28.88 43.24"/><polygon class="cls-26" points="28.88 49.06 28.84 49.12 28.84 58.87 28.88 58.89 34.17 61.95 28.88 49.06"/><path class="cls-7" d="M227.35,224.87c0-1.29,1.94-2.34,4.36-2.34s4.42,1.05,4.42,2.34-2,2.33-4.42,2.33S227.35,226.16,227.35,224.87Z" transform="translate(-142.52 -179.7)"/><path class="cls-28" d="M229.42,224.87c0-.68,1-1.24,2.31-1.24s2.33.56,2.33,1.24-1.05,1.23-2.33,1.23S229.42,225.55,229.42,224.87Z" transform="translate(-142.52 -179.7)"/><path class="cls-7" d="M293.82,260.75c0-1.29,1.93-2.33,4.36-2.33s4.41,1,4.41,2.33-2,2.34-4.41,2.34S293.82,262,293.82,260.75Z" transform="translate(-142.52 -179.7)"/><path class="cls-28" d="M295.89,260.75c0-.68,1-1.23,2.3-1.23s2.33.55,2.33,1.23-1,1.24-2.33,1.24S295.89,261.43,295.89,260.75Z" transform="translate(-142.52 -179.7)"/><path class="cls-7" d="M243.35,263c0-1.29,1.94-2.34,4.36-2.34s4.42,1.05,4.42,2.34-2,2.33-4.42,2.33S243.35,264.27,243.35,263Z" transform="translate(-142.52 -179.7)"/><path class="cls-28" d="M245.42,263c0-.68,1-1.24,2.3-1.24s2.34.56,2.34,1.24-1.06,1.23-2.34,1.23S245.42,263.66,245.42,263Z" transform="translate(-142.52 -179.7)"/><path class="cls-7" d="M210.3,255.09c0-1.29,1.94-2.33,4.36-2.33s4.42,1,4.42,2.33-2,2.34-4.42,2.34S210.3,256.38,210.3,255.09Z" transform="translate(-142.52 -179.7)"/><path class="cls-28" d="M212.37,255.09c0-.68,1-1.23,2.31-1.23s2.33.55,2.33,1.23-1,1.23-2.33,1.23S212.37,255.77,212.37,255.09Z" transform="translate(-142.52 -179.7)"/></svg>