<svg id="Layer_1" data-name="Layer 1" xmlns="http://www.w3.org/2000/svg" viewBox="0 0 11.49 23.51"><defs><style>.cls-1{fill:#badaf2;}.cls-2{fill:#5797d1;}.cls-3{fill:#f9ad98;}.cls-4{fill:#f2a31e;}.cls-5{fill:#fff;}.cls-6{fill:#a04123;}.cls-7{fill:#fbc4b3;}.cls-8{fill:#ffc91b;}.cls-9{fill:#ee372a;}.cls-10{fill:#f07f22;}</style></defs><title>princesa</title><path class="cls-1" d="M225.6,260.24a9.1,9.1,0,0,0-1.36,2.55,21.17,21.17,0,0,0-1.39,5.74c0,1.27-.18,5.7-1.64,6.52s-2.26,0-2.86,1.11c-.17.31.73,1.94,1,2.31s1.29.38,1.58.44,1.54-1.49,2.21-2.67,1.6-4.51,2.62-7.36.73-8.1.73-8.1Z" transform="translate(-218.33 -259.07)"/><path class="cls-2" d="M225.75,261.35a15,15,0,0,0-1.48,4.33,38,38,0,0,0-.68,5.3,10.14,10.14,0,0,1-1.75,5c-.43.4-1.88.29-2.26.77s0,1,.27.75a.63.63,0,0,1,.92-.09,6.25,6.25,0,0,0,2.41.6C223.5,278,227.18,263.12,225.75,261.35Z" transform="translate(-218.33 -259.07)"/><path class="cls-3" d="M228.72,266.21c0,.06.09.7.18,2,.06,1,.08,1.61.11,2.32,0,.34-.12.91-.31,1s-.48-.29-.61-.87c-.06-.27.13-.75,0-1.15a11.9,11.9,0,0,1-.37-2.85Z" transform="translate(-218.33 -259.07)"/><path class="cls-4" d="M227.8,262.93c.46.21,1.07,1.33,1,3,0,.53.12,3.25.15,3.53-.27.25-.29.48-.67.27-.52-.43-.63-3.66-.63-3.66l-.79-3.15A1,1,0,0,1,227.8,262.93Z" transform="translate(-218.33 -259.07)"/><path class="cls-3" d="M228.27,272.52s-.16,1.05-.17,1.53a6.9,6.9,0,0,1-.12,1.27c-.1.55-.24,2.75-.25,3.48a3.35,3.35,0,0,0,.61,1.67c.17.27-.36.68-.76.29s-.44-.46-.67-.58a1.09,1.09,0,0,1-.22-1.21,6.86,6.86,0,0,0-.09-2.71c-.19-1,.08-2.25,0-2.55S228.27,272.52,228.27,272.52Z" transform="translate(-218.33 -259.07)"/><path class="cls-5" d="M229,269.86l-.12-1.47a.81.81,0,0,0-.51.74,2.42,2.42,0,0,0,.16.84Z" transform="translate(-218.33 -259.07)"/><path class="cls-6" d="M228.34,280.47a6,6,0,0,1,.66.62c.17.2-.34.49-.83.32a4.25,4.25,0,0,1-1.27-1c-.38-.34-.48-.46-.47-.85a.75.75,0,0,1,.21-.39,1.73,1.73,0,0,0,.68,1.12C227.85,280.63,228.06,280.68,228.34,280.47Z" transform="translate(-218.33 -259.07)"/><path class="cls-7" d="M226.73,273.37s-.06,1.07-.07,1.54a4.06,4.06,0,0,1-.22,1.16,28.36,28.36,0,0,0-.25,3.59,3.21,3.21,0,0,0,.61,1.67c.16.26-.36.67-.77.29s-.44-.46-.67-.58a1.12,1.12,0,0,1-.21-1.22,6.84,6.84,0,0,0-.1-2.7,15.61,15.61,0,0,1,.06-2.57c-.17-.77-.59-1.94-.16-2.2S226.73,273.37,226.73,273.37Z" transform="translate(-218.33 -259.07)"/><path class="cls-6" d="M226.8,281.33a8.15,8.15,0,0,1,.66.61c.16.2-.35.5-.84.33a4.38,4.38,0,0,1-1.27-1c-.38-.33-.48-.46-.46-.84a.77.77,0,0,1,.2-.4,1.73,1.73,0,0,0,.68,1.12C226.3,281.49,226.52,281.53,226.8,281.33Z" transform="translate(-218.33 -259.07)"/><path class="cls-8" d="M224.58,268.88c.09-.69,1.08-1.47.45-2.67a1.5,1.5,0,0,1-.67-1.74c.09-.37,1.24-1.16,1.24-1.16l.86.69c.22.17.56,0,.34-.62a2.28,2.28,0,0,1,0-.75l.21,0c.2.21.58.78.79,1s1,.94.76,1.68a6.35,6.35,0,0,1-.27.68,1.78,1.78,0,0,0-.26,1.41,11.4,11.4,0,0,1,.57,2.43l1.19,10.24s-.36,1.28-4,2.43c-2.62.82-5.16-3.63-5.16-3.63s-.12-.79,1.85-3.14C224.3,273.53,224.44,269.88,224.58,268.88Z" transform="translate(-218.33 -259.07)"/><path class="cls-3" d="M226.9,262.72a.86.86,0,0,1,.11.38c0,.2,1,1.12.32,1.52s-1.73-1.31-1.73-1.31a3.71,3.71,0,0,0,.18-.76,6.72,6.72,0,0,0,0-1.2Z" transform="translate(-218.33 -259.07)"/><path class="cls-7" d="M226.25,260.43a1.14,1.14,0,0,1,1.75.69c.32,1.09-.72,2.39-1.23,2.14a2.38,2.38,0,0,1-1.06-1.25A1.63,1.63,0,0,1,226.25,260.43Z" transform="translate(-218.33 -259.07)"/><path class="cls-5" d="M227.19,263.21a3.74,3.74,0,0,1,.71.92,2.22,2.22,0,0,1-.24,1.73,10.54,10.54,0,0,1-1.35-1.19c-.27-.37-1-1.16-1-1.16l.43-.07a4.64,4.64,0,0,0,.88.81l.7.37a1.25,1.25,0,0,0,0-.88,1.5,1.5,0,0,0-.28-.49Z" transform="translate(-218.33 -259.07)"/><path class="cls-6" d="M225.62,260.69a1,1,0,0,1,.65-.7,1.23,1.23,0,0,1,1.55.28,1.25,1.25,0,0,1,.37,1.13c-.05.33.14.73.08,1s-.24.26-.22.49.15.26.17.38c.07.32-.22.51-.17.68a2.5,2.5,0,0,0,.17.23.37.37,0,0,1-.11.53c0-.29-.24-.4-.4-.54s-.09-.39-.14-.49-.32-.3-.38-.49a2,2,0,0,0,.86-1.54,2,2,0,0,1-1.13.39c-.44,0-1-.36-1.13.18A2,2,0,0,1,225.62,260.69Z" transform="translate(-218.33 -259.07)"/><path class="cls-3" d="M224.6,267.38a12.06,12.06,0,0,0,.58,1.91c.35.9.56,1.51.8,2.18.12.32.16.9,0,1s-.54-.13-.84-.64c-.14-.24-.11-.76-.3-1.12a12,12,0,0,1-1.2-2.6Z" transform="translate(-218.33 -259.07)"/><path class="cls-4" d="M224.71,267.47a25.45,25.45,0,0,0,.83,2.77c-.3.3-.5.4-.78.37-.27-.62-1.31-2.21-1.31-3a9.55,9.55,0,0,1,.63-2.69,1.68,1.68,0,0,1,.83-1.11c.22-.09.53.48.61.89C225.67,265.64,224.89,266.85,224.71,267.47Z" transform="translate(-218.33 -259.07)"/><path class="cls-7" d="M226.31,262.16a.52.52,0,0,0-.25-.38c-.22-.11-.25.36-.1.53S226.31,262.16,226.31,262.16Z" transform="translate(-218.33 -259.07)"/><path class="cls-8" d="M225.67,260.66c0,.35.53.63,1.19.63s1.19-.28,1.19-.63-.54-.63-1.19-.63S225.67,260.31,225.67,260.66Z" transform="translate(-218.33 -259.07)"/><path class="cls-4" d="M228,260.4s0-.3,0-.61a3.73,3.73,0,0,0-.06-.47s-.23.21-.3.29a2.3,2.3,0,0,0-.23.29,1.45,1.45,0,0,0-.06-.45,1.88,1.88,0,0,0-.18-.38,1.6,1.6,0,0,0-.35.39,3.21,3.21,0,0,0-.14.29s0-.11-.15-.36a.27.27,0,1,0-.45.2,2.84,2.84,0,0,1,0,.31,1,1,0,0,0-.21-.15,1,1,0,0,0-.53-.14s.15.43.23.63a1.27,1.27,0,0,0,1.31.74A1.94,1.94,0,0,0,228,260.4Z" transform="translate(-218.33 -259.07)"/><path class="cls-6" d="M228,260.5s-.15-.5-.94-.54a1.26,1.26,0,0,0-1.39.7A2,2,0,0,0,228,260.5Z" transform="translate(-218.33 -259.07)"/><path class="cls-8" d="M228,260.75l.33-.82a1.1,1.1,0,0,0-.66.73.47.47,0,0,0,0-.24c-.12-.2-.33-.49-.33-.49a1.91,1.91,0,0,0-.49.9c-.09-.27-.26-.75-.65-.87a.82.82,0,0,0-.24.7,1.2,1.2,0,0,0-.72-.63l.46.73,1.18.29Z" transform="translate(-218.33 -259.07)"/><path class="cls-6" d="M225.32,261.78c0-.16.14-.49.25-.82.17-.08.33.2.43.31a1.25,1.25,0,0,1,.29.43h0s0,0,0,0l0,.14.25.63a.7.7,0,0,1-.07.58c-.05.22.22.56.25.61.19.35-.1.67,0,.79a2.4,2.4,0,0,1,.26.44c.1.26-.05.55-.32.46.07-.08.17-.3,0-.34a.85.85,0,0,1-.65-.45,1.74,1.74,0,0,1,0-.45c0-.14,0-.28-.17-.35-.35-.16-.45-.14-.55-.29s.09-.65,0-.87A1.33,1.33,0,0,1,225.32,261.78Z" transform="translate(-218.33 -259.07)"/><path class="cls-9" d="M227.27,260.6c.11,0,.13.15.09.23a.09.09,0,0,1-.1.06C227.15,260.86,227.18,260.63,227.27,260.6Z" transform="translate(-218.33 -259.07)"/><path class="cls-9" d="M226.31,260.55c.05,0,.12.2,0,.22s-.1,0-.1-.13S226.24,260.52,226.31,260.55Z" transform="translate(-218.33 -259.07)"/><path class="cls-9" d="M228,260.36s.05,0,.05,0,0,.18-.08.18S228,260.4,228,260.36Z" transform="translate(-218.33 -259.07)"/><path class="cls-10" d="M220.87,278.06s.61.65,1.13,1.14.88,1.56,2.38,2.26c1,.47,2.13-.1,2.94-.45a14,14,0,0,0,2.41-1.81l0,.31a10.75,10.75,0,0,1-3.52,2.24c-2,.64-3-.36-3.85-1.56a16.11,16.11,0,0,0-1.62-1.88Z" transform="translate(-218.33 -259.07)"/><path class="cls-5" d="M225.38,269.71l.29.9a1,1,0,0,1-.35.34,2.06,2.06,0,0,1-.35.15,16.62,16.62,0,0,1-.75-1.53A2.5,2.5,0,0,1,225.38,269.71Z" transform="translate(-218.33 -259.07)"/><path class="cls-4" d="M228.16,279.65a2,2,0,0,0,0-1,1.28,1.28,0,0,0-.44-.7,4.43,4.43,0,0,0-.09.94,3.26,3.26,0,0,0,.32.8,1.11,1.11,0,0,0-.62-.31,4.13,4.13,0,0,0-.69-.05,5.28,5.28,0,0,0,.78.67,2.36,2.36,0,0,0,.76.21s.23-.1.56-.69a4.11,4.11,0,0,0,.22-.73,2.65,2.65,0,0,0-.44.32A4.09,4.09,0,0,0,228.16,279.65Z" transform="translate(-218.33 -259.07)"/><path class="cls-4" d="M227.43,275.33a2.14,2.14,0,0,0,.18-1,1.28,1.28,0,0,0-.33-.75,3.86,3.86,0,0,0-.23.91,3,3,0,0,0,.2.84,1.15,1.15,0,0,0-.57-.4,4.48,4.48,0,0,0-.68-.16,5.43,5.43,0,0,0,.67.78,2.36,2.36,0,0,0,.72.33s.25-.06.66-.6a4.18,4.18,0,0,0,.33-.69,3.23,3.23,0,0,0-.49.25A4.22,4.22,0,0,0,227.43,275.33Z" transform="translate(-218.33 -259.07)"/><path class="cls-4" d="M224.66,273.86a1.86,1.86,0,0,1,.05-.92,1.16,1.16,0,0,1,.44-.6,3.57,3.57,0,0,1,0,.85,2.74,2.74,0,0,1-.35.7,1,1,0,0,1,.58-.23,3,3,0,0,1,.63,0,5.15,5.15,0,0,1-.75.54,2.25,2.25,0,0,1-.71.14s-.2-.11-.45-.67A4.09,4.09,0,0,1,224,273a3.18,3.18,0,0,1,.38.32A3.62,3.62,0,0,1,224.66,273.86Z" transform="translate(-218.33 -259.07)"/><path class="cls-4" d="M223.48,279.55a2,2,0,0,1,.27-1,1.23,1.23,0,0,1,.61-.54,3.84,3.84,0,0,1-.18.92,3.27,3.27,0,0,1-.54.67,1.19,1.19,0,0,1,.68-.12,4,4,0,0,1,.68.16,5.1,5.1,0,0,1-.94.41,2.48,2.48,0,0,1-.79,0,1.54,1.54,0,0,1-.33-.83,3.66,3.66,0,0,1,0-.76,3,3,0,0,1,.33.43A4,4,0,0,1,223.48,279.55Z" transform="translate(-218.33 -259.07)"/><path class="cls-4" d="M228.81,277.27a1.73,1.73,0,0,0,0-.83,1,1,0,0,0-.35-.56,3.16,3.16,0,0,0-.07.76,2.43,2.43,0,0,0,.26.65,1,1,0,0,0-.51-.26,3.75,3.75,0,0,0-.56,0,4.73,4.73,0,0,0,.63.54,1.86,1.86,0,0,0,.62.17s.19-.08.45-.56a1.53,1.53,0,0,0,.07-.57s-.17.15-.25.24A2.73,2.73,0,0,0,228.81,277.27Z" transform="translate(-218.33 -259.07)"/><path class="cls-4" d="M226.64,270.6a1.62,1.62,0,0,0,.12-.81,1.08,1.08,0,0,0-.27-.61,3.26,3.26,0,0,0-.17.74,2.36,2.36,0,0,0,.17.68.88.88,0,0,0-.46-.31,1.35,1.35,0,0,0-.36-.08,2.1,2.1,0,0,0,.42.57,2.41,2.41,0,0,0,.53.27s.2-.06.52-.51a3,3,0,0,0,.25-.56,2.7,2.7,0,0,0-.38.21A3.17,3.17,0,0,0,226.64,270.6Z" transform="translate(-218.33 -259.07)"/><path class="cls-4" d="M226.17,277.89a1.62,1.62,0,0,0,.12-.81,1,1,0,0,0-.28-.6,3.26,3.26,0,0,0-.17.74,2.48,2.48,0,0,0,.18.67.88.88,0,0,0-.46-.31,3.9,3.9,0,0,0-.56-.1,4.93,4.93,0,0,0,.56.61,2.06,2.06,0,0,0,.6.25s.2-.06.51-.51a3,3,0,0,0,.25-.56,2.27,2.27,0,0,0-.39.21A3.61,3.61,0,0,0,226.17,277.89Z" transform="translate(-218.33 -259.07)"/><path class="cls-4" d="M227.94,272.39a1.64,1.64,0,0,0,.12-.82,1,1,0,0,0-.28-.6,3.4,3.4,0,0,0-.16.74,2.6,2.6,0,0,0,.18.68.93.93,0,0,0-.47-.31,3.13,3.13,0,0,0-.56-.11,4.39,4.39,0,0,0,.57.62c.24.16.51.31.51.31a1.73,1.73,0,0,0,.59-.57,3.36,3.36,0,0,0,.25-.57,2.13,2.13,0,0,0-.38.22A2.58,2.58,0,0,0,227.94,272.39Z" transform="translate(-218.33 -259.07)"/><path class="cls-4" d="M223.06,277.11a1.65,1.65,0,0,1,.2-.8,1,1,0,0,1,.49-.44,2.76,2.76,0,0,1-.13.75,2.38,2.38,0,0,1-.42.55.92.92,0,0,1,.56-.09,3.84,3.84,0,0,1,.56.13,4.18,4.18,0,0,1-.77.33,1.84,1.84,0,0,1-.65,0,1.31,1.31,0,0,1-.29-.67,2.78,2.78,0,0,1,0-.62,2.77,2.77,0,0,1,.28.35A2.9,2.9,0,0,1,223.06,277.11Z" transform="translate(-218.33 -259.07)"/><path class="cls-10" d="M228,266.74a2.56,2.56,0,0,0,.14,1s-.32.8-.44,1.14a3.14,3.14,0,0,1-.24.55,5.73,5.73,0,0,0-1.27-1,10.81,10.81,0,0,0-1.22-.54,2,2,0,0,0,.19-.71,4.53,4.53,0,0,0-.06-.74,7.75,7.75,0,0,1,1.46.6,3,3,0,0,1,.84.75Z" transform="translate(-218.33 -259.07)"/><path class="cls-10" d="M227.85,270.22a.11.11,0,0,0,.1.11.11.11,0,0,0,.11-.11.1.1,0,0,0-.11-.1A.1.1,0,0,0,227.85,270.22Z" transform="translate(-218.33 -259.07)"/><path class="cls-10" d="M225.56,268.87a.11.11,0,0,0,.11.11.11.11,0,0,0,.1-.11.11.11,0,0,0-.1-.1A.11.11,0,0,0,225.56,268.87Z" transform="translate(-218.33 -259.07)"/><path class="cls-10" d="M228.33,273.58a.1.1,0,0,0,.11.1.1.1,0,0,0,.1-.1.11.11,0,0,0-.1-.11A.11.11,0,0,0,228.33,273.58Z" transform="translate(-218.33 -259.07)"/><path class="cls-10" d="M229.16,278.81a.11.11,0,0,0,.11.1.1.1,0,0,0,.1-.1.1.1,0,0,0-.1-.11A.11.11,0,0,0,229.16,278.81Z" transform="translate(-218.33 -259.07)"/><path class="cls-10" d="M226.4,280.57a.11.11,0,0,0,.11.1.1.1,0,0,0,.1-.1.1.1,0,0,0-.1-.11A.11.11,0,0,0,226.4,280.57Z" transform="translate(-218.33 -259.07)"/><path class="cls-10" d="M225.13,278.7a.1.1,0,0,0,.1.11.11.11,0,0,0,.11-.11.1.1,0,0,0-.11-.1A.09.09,0,0,0,225.13,278.7Z" transform="translate(-218.33 -259.07)"/><path class="cls-10" d="M222.34,278.34a.1.1,0,0,0,.11.1.09.09,0,0,0,.1-.1.1.1,0,0,0-.1-.11A.11.11,0,0,0,222.34,278.34Z" transform="translate(-218.33 -259.07)"/><path class="cls-10" d="M226.3,272.66a.11.11,0,0,0,.1.1.11.11,0,0,0,.11-.1.11.11,0,0,0-.11-.11A.11.11,0,0,0,226.3,272.66Z" transform="translate(-218.33 -259.07)"/><circle class="cls-10" cx="6.43" cy="21.71" r="0.11"/><path class="cls-10" d="M223.75,275a.1.1,0,0,0,.11.1.1.1,0,0,0,.1-.1.11.11,0,0,0-.1-.11A.11.11,0,0,0,223.75,275Z" transform="translate(-218.33 -259.07)"/><circle class="cls-10" cx="8.75" cy="17.51" r="0.11"/><path class="cls-10" d="M225,275.71a.1.1,0,0,0,.11.1.1.1,0,0,0,.1-.1.11.11,0,0,0-.1-.11A.11.11,0,0,0,225,275.71Z" transform="translate(-218.33 -259.07)"/></svg>