<svg id="Layer_1" data-name="Layer 1" xmlns="http://www.w3.org/2000/svg" viewBox="0 0 57.3 114.48"><defs><style>.cls-1{fill:#457ec0;}.cls-2{fill:#422522;}.cls-3{fill:#5f3d37;}.cls-4{fill:#af766e;}.cls-5{fill:#fbc4b3;}.cls-6{fill:#637d36;}.cls-7{fill:#77973d;}.cls-8{fill:#f9ad98;}</style></defs><title>robin</title><ellipse class="cls-1" cx="28.65" cy="99.24" rx="28.65" ry="15.24"/><path class="cls-2" d="M249.57,254.06c0-7.2,11-13,24.5-13s24.49,5.83,24.49,13-11,13-24.49,13S249.57,261.25,249.57,254.06Z" transform="translate(-245.5 -157.16)"/><rect class="cls-2" x="4.07" y="93.75" width="48.99" height="3.96"/><ellipse class="cls-3" cx="28.56" cy="93.75" rx="24.5" ry="13.03"/><path class="cls-4" d="M258.61,205.73l-.14-.37s0-.06.07-.21l0,0,.21-.26c1-1.49,6.19-7.86,30.72-36.62l.36.3Z" transform="translate(-245.5 -157.16)"/><path class="cls-3" d="M290,166.4c-2.12,3.58-1.71,8.52-3,12.46a41,41,0,0,1-9.31,15.1c-4.08,4.27-8.79,5.74-14.07,8-2.83,1.2-5.77,2.88-7.35,5.64-1,1.82-1.66,4.59.53,5.83a2.81,2.81,0,0,0,4.1-1.51c.26-.57-.46-.68-1.55.13-2.61,1.92-3.51-2.17-2.09-3.78a20.2,20.2,0,0,1,3.39-3.4,18,18,0,0,1,2.27-1.26c2.56-1.24,5.37-1.89,8-3a27.76,27.76,0,0,0,9.7-7.82,42.26,42.26,0,0,0,7-11.29,36.92,36.92,0,0,0,2-6.42c.15-.78.28-1.56.4-2.34s.22-1.68.34-2.52c.18-2.93,2.56-6.27,6-4.39a2.64,2.64,0,0,1,.88,1.65c.07.38.37,0,.44-.3C298.53,163,292,162.91,290,166.4Z" transform="translate(-245.5 -157.16)"/><rect class="cls-4" x="288.42" y="167.81" width="3.02" height="0.46" transform="translate(-277.29 -82.9) rotate(-13.84)"/><rect class="cls-4" x="289.7" y="166.89" width="0.46" height="3.02" transform="translate(-263.9 142.97) rotate(-53.28)"/><polygon class="cls-4" points="12.98 50.37 11.65 47.65 12.06 47.45 13.39 50.16 12.98 50.37"/><rect class="cls-4" x="257.79" y="204.55" width="0.46" height="3.02" transform="translate(-220.8 282.57) rotate(-83.65)"/><path class="cls-5" d="M263,198.19s.61,3.05,1,4l.38,1s-1.35-1.68-1.93-1,.74,1.85,1.93,2.48,3.06-.52,3.06-.52l-.09-6.61Z" transform="translate(-245.5 -157.16)"/><path class="cls-6" d="M273.14,174.59s-2.21-.87-5.54,2.07c-1.88,1.67-3.48,3.94-5.74,6.42-1.18,1.3-3.86,4.53-4.07,5.5a8.34,8.34,0,0,0,.92,4.38,45.09,45.09,0,0,0,4.3,6.59,33.92,33.92,0,0,1,4.33-2l-4-7.14,5.36-3.21Z" transform="translate(-245.5 -157.16)"/><path class="cls-2" d="M279.92,249.2c0,.08-.17,2.75-.14,6.69s4.14,7.85,6.07,2.39a19.25,19.25,0,0,0,.9-9.85Z" transform="translate(-245.5 -157.16)"/><path class="cls-2" d="M265.5,244.4s-4.16,3.88-6.46,6.61-.46,4.77,3.11,3.52,8-3.15,8-5.65V244.4Z" transform="translate(-245.5 -157.16)"/><path class="cls-6" d="M264.14,209.34s-.11,13.38,0,19.39-.06,13.83-.05,17,5.26,2.18,5.9,1.06,1-11.32,1.92-16,1.77-17.84,1.77-17.84,3.4,13.11,3.94,17.84,2.38,19,2.38,19,2.32,2.64,4.63,1.21a5.46,5.46,0,0,0,2.48-4s0-32-5.89-40c-4.34-5.87-3.6-3.43-3.6-3.43Z" transform="translate(-245.5 -157.16)"/><path class="cls-7" d="M284.85,187c0-4.5.19-6.81-2.57-8.66s-9.14-3.88-9.14-3.88a27.22,27.22,0,0,0-3.67,2.61c-3.76,3.74-4.21,8.62-4,13.38a51.28,51.28,0,0,0,.78,7c-.32,2.05-2,7.49-2.5,10.18a61.11,61.11,0,0,0-.68,8.48c10.11-.56,17.05-10.08,17.05-10.08l4.39,9.28s-.85-11.14-2.16-15.13C282.64,196.34,284.85,191.52,284.85,187Z" transform="translate(-245.5 -157.16)"/><path class="cls-6" d="M265.89,199s2.12,1.49,7.64,2.45a14.87,14.87,0,0,0,7.92-.65v-1.22a30.1,30.1,0,0,1-7.92.15c-5.29-.93-7.32-2.2-7.32-2.2Z" transform="translate(-245.5 -157.16)"/><path class="cls-8" d="M271.68,183.66a28.77,28.77,0,0,1,7.87-6.23,18.05,18.05,0,0,1-1.26-4.27,11.71,11.71,0,0,1,.08-4.76l-4.91,1.7a19.25,19.25,0,0,0-1.6,5.93c-.08.62.16,1.73-.13,2A35.83,35.83,0,0,0,271.68,183.66Z" transform="translate(-245.5 -157.16)"/><path class="cls-5" d="M276.62,162.52a5.82,5.82,0,0,0-9,3.36c-1.78,5.56,3.4,12.29,6,11.05,1.47-.7,4.53-3.12,5.32-6C279.87,167.6,278.32,163.74,276.62,162.52Z" transform="translate(-245.5 -157.16)"/><path class="cls-2" d="M273.72,166.74a11.12,11.12,0,0,0,2.57,1.63c1.08-1.15,1.59-1.27,2.11-.92.67.46.44,1.23,0,2.41a3.8,3.8,0,0,0,.06,2.44s4.71-9.07-.41-10.29S273.72,166.74,273.72,166.74Z" transform="translate(-245.5 -157.16)"/><path class="cls-7" d="M264,171a31.8,31.8,0,0,0,12.3-2.62c1.32-.58,1.23-1.12,2-1.75a46.9,46.9,0,0,0,5.68-6.6,43,43,0,0,0-10.21.63C268.82,161.55,264.86,166.83,264,171Z" transform="translate(-245.5 -157.16)"/><path class="cls-6" d="M267.53,166.22s-1.24-5.17,4.94-8.51c4.72-2.56,6.37,4.61,6.37,4.61A17.42,17.42,0,0,1,267.53,166.22Z" transform="translate(-245.5 -157.16)"/><path class="cls-5" d="M280.83,198.77a3.18,3.18,0,0,0-2,1.67,4.18,4.18,0,0,0,0,4.46,3.07,3.07,0,0,0,3.72,1.25c.75-.46.47-1.12-.17-1.25a4.73,4.73,0,0,1-1.32-.6,3.12,3.12,0,0,0,1.32-2.59A5.8,5.8,0,0,0,280.83,198.77Z" transform="translate(-245.5 -157.16)"/><path class="cls-6" d="M292,189.83c-2.51-6.53-6.8-11.82-9.74-11.48,0,0-4.2,5.88-.24,10.4s5.12,5.31,5.12,5.31l-6.8,4.31a3.48,3.48,0,0,0,.74,3.72c.28.32,1,.62,1.21.94,3.13-.92,6.86-3.11,8.81-4C294,197.68,294.53,196.36,292,189.83Z" transform="translate(-245.5 -157.16)"/><path class="cls-5" d="M276.09,169a34.21,34.21,0,0,1,2.75-4.66,14.08,14.08,0,0,1,2.23-2.82s-1,6.16-2.88,9.14C276.74,172.91,276.09,169,276.09,169Z" transform="translate(-245.5 -157.16)"/><path class="cls-8" d="M277,170.55a18.49,18.49,0,0,1,1.26-4.33c.7-1.14,1.26-1.9,1.26-1.9a34.4,34.4,0,0,1-1,4.24A4,4,0,0,1,277,170.55Z" transform="translate(-245.5 -157.16)"/><path class="cls-6" d="M271.05,176.3a8.5,8.5,0,0,0-.89,3.9,21.78,21.78,0,0,0,.71,5.65s4-3.51,5.52-4.78,4.68-3.42,4.68-3.42l-1.84-.88s-2.77,2.11-3.66,2.85-3.79,3.35-3.79,3.35-.19-2.62-.11-3.66c0-.6.42-2.38.42-2.38Z" transform="translate(-245.5 -157.16)"/><path class="cls-3" d="M263.08,207.92l.46-2.29A40.3,40.3,0,0,1,267,195.9c7-13.1,14.7-17.75,15-17.94l1.74-1Zm17.36-27.65c-2.78,2.26-7.91,7.24-12.6,16.06a37.79,37.79,0,0,0-2.73,6.88Z" transform="translate(-245.5 -157.16)"/></svg>